<svg width="189" height="84" viewBox="0 0 189 84" fill="none" xmlns="http://www.w3.org/2000/svg">
<path d="M170.083 68.2914C170.083 66.2698 170.083 64.2482 170.083 62.2266C170.083 60.1757 170.083 58.1249 170.083 56.074C170.083 54.1696 170.083 52.2652 170.083 50.3608C170.083 48.4271 170.083 46.5081 170.083 44.6037H189C189 46.5667 189 48.5443 189 50.5366C189 52.4996 189 54.4772 189 56.4695C189 58.4325 189 60.4101 189 62.4024C189 64.3654 189 66.3284 189 68.2914H170.083ZM189 68.2914V77.5643H170.083V71.5435C173.244 70.9868 176.404 70.4448 179.565 69.9174C182.725 69.3901 185.87 68.848 189 68.2914Z" fill="#FF3131"/>
<path d="M136.409 68.3379C136.409 66.5888 136.677 65.2187 137.212 64.2276C137.748 63.2073 138.67 62.391 139.979 61.7789C141.289 61.1375 143.103 60.5254 145.424 59.9423C146.406 59.68 147.209 59.4468 147.834 59.2427C148.459 59.0095 148.905 58.7617 149.173 58.4993C149.471 58.2078 149.619 57.8434 149.619 57.4062C149.619 56.9106 149.441 56.5025 149.084 56.1818C148.727 55.8612 148.266 55.6279 147.7 55.4822C147.165 55.3073 146.57 55.2198 145.915 55.2198C145.052 55.2198 144.264 55.3656 143.55 55.6571C142.836 55.9195 142.315 56.3422 141.988 56.9252C141.69 57.4791 141.69 58.1933 141.988 59.0678L123.957 56.6628C123.838 54.4765 124.285 52.5671 125.296 50.9346C126.338 49.273 127.84 47.8883 129.804 46.7805C131.768 45.6728 134.103 44.842 136.811 44.2881C139.548 43.7342 142.553 43.4573 145.826 43.4573C148.831 43.4573 151.687 43.6759 154.395 44.1132C157.102 44.5213 159.497 45.1918 161.58 46.1246C163.693 47.0283 165.344 48.2235 166.534 49.7102C167.754 51.1678 168.364 52.9606 168.364 55.0887C168.364 56.6628 167.992 57.9601 167.248 58.9803C166.534 59.9715 165.597 60.7731 164.436 61.3853C163.276 61.9975 162.056 62.5222 160.777 62.9595C159.497 63.3968 158.278 63.834 157.117 64.2713C155.957 64.6794 155.005 65.2042 154.261 65.8455C153.547 66.4577 153.19 67.2885 153.19 68.3379H136.409ZM136.409 71.2676L153.19 68.3379V77.5643H136.409V71.2676Z" fill="#FF3131"/>
<path d="M97.8592 83.5831C98.3978 82.9841 98.9215 82.385 99.4302 81.786C99.939 81.1869 100.448 80.5879 100.956 79.9888C101.495 79.3898 102.019 78.7907 102.527 78.1917H94.1335C93.146 75.0766 92.1585 71.9766 91.171 68.8915C90.1835 65.8064 89.1959 62.7213 88.2084 59.6362C87.2209 56.5211 86.2334 53.421 85.2458 50.3359H101.719C102.258 53.5408 102.782 56.7458 103.291 59.9507C103.829 63.1556 104.368 66.3605 104.906 69.5654C104.906 69.5654 104.906 69.6103 104.906 69.7002C104.936 69.79 104.951 69.835 104.951 69.835C104.951 69.835 104.951 69.82 104.951 69.79C104.981 69.7301 104.996 69.6852 104.996 69.6552C104.996 69.6253 104.996 69.6103 104.996 69.6103C105.385 67.4537 105.759 65.3122 106.118 63.1855C106.478 61.029 106.837 58.8874 107.196 56.7607C107.585 54.6042 107.959 52.4626 108.318 50.3359H123.939C122.742 54.05 121.53 57.7492 120.303 61.4333C119.106 65.1175 117.909 68.8016 116.712 72.4858C115.515 76.1699 114.303 79.869 113.076 83.5831H97.8592Z" fill="#FF3131"/>
<path d="M51.8051 51.8131C53.9872 50.8431 56.3486 50.1229 58.8894 49.6525C61.46 49.1528 64.0307 48.9029 66.6014 48.9029C69.1123 48.9029 71.5335 49.1381 73.865 49.6084C76.1966 50.0788 78.274 50.799 80.0974 51.7691C81.9507 52.7391 83.4154 53.9444 84.4915 55.3848C85.5676 56.8252 86.1056 58.5155 86.1056 60.4557C86.1056 63.3071 86.1056 66.1585 86.1056 69.01C86.1056 71.8614 86.1056 74.7128 86.1056 77.5643C85.0594 77.5643 84.0132 77.5643 82.967 77.5643C81.9208 77.5643 80.8746 77.5643 79.8284 77.5643C78.7822 77.5643 77.736 77.5643 76.6898 77.5643C75.6436 77.5643 74.5974 77.5643 73.5512 77.5643C72.505 77.5643 71.4588 77.5643 70.4126 77.5643C70.4126 76.0063 70.4126 74.463 70.4126 72.9344C70.4126 71.3764 70.4126 69.8331 70.4126 68.3045C70.4126 67.7753 70.2332 67.3491 69.8745 67.0257C69.5158 66.7024 69.0824 66.4819 68.5742 66.3643C68.0661 66.2173 67.5579 66.1438 67.0498 66.1438C65.9139 66.1438 65.047 66.3643 64.4492 66.8053C63.8813 67.2462 63.5973 67.7459 63.5973 68.3045C63.5973 68.863 63.8962 69.3774 64.494 69.8478C65.0919 70.2887 65.9438 70.5092 67.0498 70.5092C67.5878 70.5092 68.2006 70.4063 68.8881 70.2005C69.5756 69.9947 70.0987 69.4656 70.4574 68.6131C69.8297 70.0535 69.187 71.494 68.5294 72.9344C67.9017 74.3748 67.2739 75.8152 66.6462 77.2556C65.5701 77.7848 64.4343 78.1522 63.2386 78.358C62.0728 78.5932 60.9071 78.7107 59.7413 78.7107C58.3364 78.7107 56.9763 78.5197 55.6611 78.1375C54.3758 77.7848 53.21 77.2556 52.1638 76.5501C51.1475 75.8446 50.3404 74.9627 49.7426 73.9044C49.1447 72.8462 48.8458 71.6115 48.8458 70.2005C48.8458 69.348 48.9953 68.5102 49.2942 67.6871C49.5931 66.864 50.0415 66.085 50.6393 65.3501C51.2371 64.6152 51.9844 63.9685 52.8812 63.41C53.8078 62.8515 54.8989 62.4252 56.1543 62.1312C57.4097 61.8079 58.8445 61.6462 60.4587 61.6462C61.5049 61.6462 62.5212 61.7344 63.5076 61.9108C64.494 62.0577 65.4207 62.2929 66.2875 62.6163C67.1843 62.9396 67.9764 63.3365 68.6639 63.8068C69.3813 64.2772 69.9642 64.8063 70.4126 65.3942C70.4126 65.3354 70.4126 65.2913 70.4126 65.2619C70.4126 65.2032 70.4126 65.1591 70.4126 65.1297C70.4126 65.0709 70.4126 65.0268 70.4126 64.9974C70.4126 64.0861 70.1734 63.3071 69.6952 62.6604C69.2468 61.9843 68.6191 61.4404 67.812 61.0289C67.0348 60.5879 66.1231 60.2646 65.0769 60.0588C64.0606 59.853 62.9845 59.7501 61.8486 59.7501C60.085 59.7501 58.3065 59.9706 56.513 60.4116C54.7195 60.8525 53.1502 61.4992 51.8051 62.3517V51.8131ZM55.0782 47.0509H65.7046L68.3052 41.936H67.6326L70.4126 47.0509H81.3528L76.1517 38.0116H60.2793L55.0782 47.0509Z" fill="#FF3131"/>
<path d="M0.121582 59.2382H26.2032V62.9298H0.121582L0.121582 59.2382ZM29.1507 44.6037C31.9495 44.6037 34.4207 44.9113 36.5643 45.5266C38.7378 46.1126 40.5987 46.9329 42.1469 47.9877C43.6951 49.0424 44.9605 50.2729 45.943 51.6792C46.9255 53.0563 47.655 54.5358 48.1314 56.1179C48.6077 57.7 48.8459 59.3114 48.8459 60.9521C48.8459 63.0323 48.4589 65.0686 47.6847 67.0608C46.9404 69.0238 45.7644 70.7964 44.1566 72.3785C42.5786 73.9606 40.5391 75.2204 38.0381 76.158C35.5669 77.0955 32.6045 77.5643 29.1507 77.5643H2.53324C2.53324 75.6892 2.53324 73.8287 2.53324 71.983C2.53324 70.1079 2.53324 68.2474 2.53324 66.4016C2.53324 64.5265 2.53324 62.6661 2.53324 60.8203C2.53324 58.9452 2.53324 57.0701 2.53324 55.195C2.53324 53.4371 2.53324 51.6792 2.53324 49.9213C2.53324 48.1341 2.53324 46.3616 2.53324 44.6037H29.1507ZM25.5779 57.2606H20.2634C20.2634 57.2606 20.2485 57.2606 20.2187 57.2606C20.2187 57.2606 20.2187 57.2752 20.2187 57.3045C20.2187 57.3045 20.2187 57.3192 20.2187 57.3485V64.8195C20.2187 64.8488 20.2187 64.8781 20.2187 64.9074C20.2485 64.9074 20.2634 64.9074 20.2634 64.9074H25.6672C26.3223 64.9074 26.9028 64.8049 27.409 64.5998C27.9449 64.3947 28.3915 64.1164 28.7488 63.7648C29.1061 63.4132 29.374 63.003 29.5527 62.5343C29.7611 62.0655 29.8653 61.5821 29.8653 61.084C29.8653 60.3808 29.6867 59.7363 29.3294 59.1503C29.0019 58.5643 28.5255 58.1102 27.9003 57.7879C27.275 57.4364 26.5009 57.2606 25.5779 57.2606Z" fill="#FF3131"/>
<path d="M187.849 11.6913C187.849 13.5765 187.849 15.4758 187.849 17.3892C187.849 19.3026 187.849 21.216 187.849 23.1294C187.849 24.7614 187.849 26.4074 187.849 28.0676C187.849 29.6996 187.849 31.3316 187.849 32.9636C187.849 34.5956 187.849 36.2276 187.849 37.8596H173.246C173.246 36.6778 173.246 35.4819 173.246 34.272C173.246 33.0621 173.246 31.8521 173.246 30.6422C173.246 29.4041 173.246 28.2083 173.246 27.0546C173.246 24.4378 173.246 21.8772 173.246 19.373C173.246 16.8405 173.246 14.28 173.246 11.6913L187.849 11.6913ZM168.772 11.6913C168.772 13.1826 168.772 14.688 168.772 16.2074C168.772 17.6987 168.772 19.1901 168.772 20.6814C168.772 22.1727 168.772 23.6781 168.772 25.1975C168.772 25.8166 168.87 26.323 169.067 26.717C169.292 27.0828 169.574 27.3501 169.911 27.5189C170.277 27.6596 170.657 27.7299 171.051 27.7299C171.445 27.7299 171.839 27.6596 172.233 27.5189C172.655 27.3782 172.993 27.2094 173.246 27.0124L169.869 37.4375C169.081 37.8315 168.111 38.1551 166.957 38.4083C165.831 38.6615 164.65 38.7882 163.412 38.7882C162.286 38.7882 161.175 38.6475 160.077 38.3661C158.98 38.1129 157.981 37.6767 157.08 37.0577C156.208 36.4386 155.505 35.6226 154.97 34.6097C154.436 33.5967 154.168 32.3305 154.168 30.811C154.168 28.7851 154.168 26.7592 154.168 24.7332C154.168 22.7073 154.168 20.6814 154.168 18.6554C154.168 17.5018 154.168 16.3481 154.168 15.1945C154.168 14.0127 154.168 12.8449 154.168 11.6913H168.772Z" fill="#FF3131"/>
<path d="M120.253 13.2108C122.307 12.2822 124.53 11.5928 126.922 11.1426C129.342 10.6643 131.762 10.4251 134.182 10.4251C136.545 10.4251 138.824 10.6502 141.019 11.1004C143.214 11.5506 145.169 12.24 146.886 13.1686C148.63 14.0971 150.009 15.2508 151.022 16.6295C152.035 18.0083 152.542 19.6262 152.542 21.4833C152.542 24.2127 152.542 26.9421 152.542 29.6715C152.542 32.4009 152.542 35.1303 152.542 37.8596C151.557 37.8596 150.572 37.8596 149.587 37.8596C148.602 37.8596 147.617 37.8596 146.633 37.8596C145.648 37.8596 144.663 37.8596 143.678 37.8596C142.693 37.8596 141.708 37.8596 140.724 37.8596C139.739 37.8596 138.754 37.8596 137.769 37.8596C137.769 36.3683 137.769 34.8911 137.769 33.4279C137.769 31.9366 137.769 30.4594 137.769 28.9962C137.769 28.4897 137.6 28.0817 137.263 27.7722C136.925 27.4627 136.517 27.2516 136.039 27.1391C135.56 26.9984 135.082 26.928 134.604 26.928C133.534 26.928 132.718 27.1391 132.156 27.5611C131.621 27.9832 131.354 28.4616 131.354 28.9962C131.354 29.5308 131.635 30.0232 132.198 30.4734C132.761 30.8955 133.563 31.1065 134.604 31.1065C135.11 31.1065 135.687 31.0081 136.334 30.8111C136.981 30.6141 137.474 30.1076 137.811 29.2916C137.22 30.6704 136.615 32.0492 135.996 33.4279C135.406 34.8067 134.815 36.1854 134.224 37.5642C133.211 38.0707 132.142 38.4224 131.016 38.6194C129.919 38.8445 128.821 38.957 127.724 38.957C126.401 38.957 125.121 38.7741 123.883 38.4083C122.673 38.0707 121.576 37.5642 120.591 36.8889C119.634 36.2136 118.874 35.3694 118.312 34.3565C117.749 33.3435 117.468 32.1617 117.468 30.8111C117.468 29.9951 117.608 29.1931 117.89 28.4053C118.171 27.6174 118.593 26.8718 119.156 26.1683C119.719 25.4649 120.422 24.8458 121.266 24.3112C122.139 23.7766 123.166 23.3686 124.347 23.0872C125.529 22.7777 126.88 22.6229 128.399 22.6229C129.384 22.6229 130.341 22.7073 131.269 22.8762C132.198 23.0169 133.07 23.242 133.886 23.5515C134.73 23.861 135.476 24.2409 136.123 24.6911C136.798 25.1413 137.347 25.6478 137.769 26.2105C137.769 26.1542 137.769 26.112 137.769 26.0839C137.769 26.0276 137.769 25.9854 137.769 25.9573C137.769 25.901 137.769 25.8588 137.769 25.8307C137.769 24.9584 137.544 24.2127 137.094 23.5937C136.672 22.9465 136.081 22.426 135.321 22.032C134.59 21.61 133.731 21.3004 132.747 21.1035C131.79 20.9065 130.777 20.808 129.708 20.808C128.047 20.808 126.373 21.0191 124.685 21.4411C122.997 21.8632 121.519 22.4822 120.253 23.2982V13.2108ZM123.334 8.65243H133.337L135.785 3.75642H135.152L137.769 8.65243H148.068L143.172 0L128.23 0L123.334 8.65243Z" fill="#FF3131"/>
<path d="M71.4715 20.2593H96.1204V23.8047H71.4715V20.2593ZM98.906 6.20441C101.551 6.20441 103.886 6.49986 105.912 7.09076C107.966 7.65351 109.725 8.44138 111.188 9.45435C112.651 10.4673 113.847 11.6491 114.776 12.9997C115.704 14.3222 116.394 15.7432 116.844 17.2626C117.294 18.7821 117.519 20.3297 117.519 21.9054C117.519 23.9032 117.154 25.8588 116.422 27.7722C115.718 29.6574 114.607 31.3598 113.088 32.8792C111.596 34.3987 109.669 35.6086 107.305 36.509C104.97 37.4094 102.17 37.8596 98.906 37.8596H73.7507C73.7507 36.0588 73.7507 34.272 73.7507 32.4994C73.7507 30.6985 73.7507 28.9118 73.7507 27.1391C73.7507 25.3382 73.7507 23.5515 73.7507 21.7788C73.7507 19.978 73.7507 18.1771 73.7507 16.3763C73.7507 14.688 73.7507 12.9997 73.7507 11.3115C73.7507 9.59503 73.7507 7.89269 73.7507 6.20441L98.906 6.20441ZM95.5295 18.36H90.5068C90.5068 18.36 90.4928 18.36 90.4646 18.36C90.4646 18.36 90.4646 18.3741 90.4646 18.4022C90.4646 18.4022 90.4646 18.4163 90.4646 18.4444V25.6196C90.4646 25.6478 90.4646 25.6759 90.4646 25.704C90.4928 25.704 90.5068 25.704 90.5068 25.704H95.6139C96.2329 25.704 96.7816 25.6055 97.26 25.4086C97.7664 25.2116 98.1885 24.9443 98.5262 24.6067C98.8638 24.269 99.1171 23.8751 99.2859 23.4249C99.4829 22.9746 99.5813 22.5104 99.5813 22.032C99.5813 21.3567 99.4125 20.7377 99.0749 20.1749C98.7653 19.6122 98.3151 19.176 97.7242 18.8665C97.1333 18.5288 96.4017 18.36 95.5295 18.36Z" fill="#FF3131"/>
<path d="M47.3318 37.8596C47.3318 36.5653 47.3318 35.285 47.3318 34.0188C47.3318 32.7244 47.3318 31.4441 47.3318 30.1779C47.3318 28.8836 47.3318 27.6033 47.3318 26.3371C47.3318 25.8025 47.3318 25.2679 47.3318 24.7332C47.3318 24.1986 47.3318 23.664 47.3318 23.1294C48.9638 23.1294 50.5817 23.1294 52.1856 23.1294C53.8176 23.1294 55.4496 23.1294 57.0816 23.1294C58.7136 23.1294 60.3315 23.1294 61.9354 23.1294C61.9354 24.7614 61.9354 26.3934 61.9354 28.0254C61.9354 29.6574 61.9354 31.3035 61.9354 32.9636C61.9354 34.5956 61.9354 36.2276 61.9354 37.8596H47.3318ZM47.3318 23.1294C47.3318 21.216 47.3318 19.3026 47.3318 17.3892C47.3318 15.4758 47.3318 13.5765 47.3318 11.6913H61.9354C61.9354 12.6198 61.9354 13.5484 61.9354 14.4769C61.9354 15.4055 61.9354 16.3341 61.9354 17.2626C61.9354 18.1912 61.9354 19.1197 61.9354 20.0483C61.9354 20.0483 61.9213 20.0623 61.8932 20.0905C59.4733 20.597 57.0394 21.1034 54.5914 21.6099C52.1715 22.1164 49.7517 22.6229 47.3318 23.1294Z" fill="#FF3131"/>
<path d="M0 20.2593H24.6489V23.8047H0L0 20.2593ZM27.4345 6.20441C30.0795 6.20441 32.415 6.49986 34.4409 7.09076C36.495 7.65351 38.2536 8.44138 39.7168 9.45435C41.1799 10.4673 42.3758 11.6491 43.3044 12.9997C44.2329 14.3222 44.9223 15.7432 45.3725 17.2626C45.8227 18.7821 46.0478 20.3297 46.0478 21.9054C46.0478 23.9032 45.682 25.8588 44.9504 27.7722C44.247 29.6574 43.1355 31.3598 41.6161 32.8792C40.1248 34.3987 38.1973 35.6086 35.8337 36.509C33.4983 37.4094 30.6985 37.8596 27.4345 37.8596H2.27918C2.27918 36.0588 2.27918 34.272 2.27918 32.4994C2.27918 30.6985 2.27918 28.9118 2.27918 27.1391C2.27918 25.3382 2.27918 23.5515 2.27918 21.7788C2.27918 19.978 2.27918 18.1771 2.27918 16.3763C2.27918 14.688 2.27918 12.9997 2.27918 11.3115C2.27918 9.59503 2.27918 7.89269 2.27918 6.20441L27.4345 6.20441ZM24.058 18.36H19.0353C19.0353 18.36 19.0213 18.36 18.9931 18.36C18.9931 18.36 18.9931 18.3741 18.9931 18.4022C18.9931 18.4022 18.9931 18.4163 18.9931 18.4444V25.6196C18.9931 25.6478 18.9931 25.6759 18.9931 25.704C19.0213 25.704 19.0353 25.704 19.0353 25.704H24.1424C24.7614 25.704 25.3101 25.6055 25.7885 25.4086C26.2949 25.2116 26.717 24.9443 27.0547 24.6067C27.3923 24.269 27.6456 23.8751 27.8144 23.4249C28.0114 22.9746 28.1098 22.5104 28.1098 22.032C28.1098 21.3567 27.941 20.7377 27.6034 20.1749C27.2938 19.6122 26.8436 19.176 26.2527 18.8665C25.6618 18.5288 24.9303 18.36 24.058 18.36Z" fill="#FF3131"/>
</svg>
