<?xml version="1.0" encoding="UTF-8"?>
<!DOCTYPE svg PUBLIC "-//W3C//DTD SVG 1.1//EN" "http://www.w3.org/Graphics/SVG/1.1/DTD/svg11.dtd">
<svg xmlns="http://www.w3.org/2000/svg" version="1.1" width="300px" height="218px" style="shape-rendering:geometricPrecision; text-rendering:geometricPrecision; image-rendering:optimizeQuality; fill-rule:evenodd; clip-rule:evenodd" xmlns:xlink="http://www.w3.org/1999/xlink">
<g><path style="opacity:1" fill="#0b1515" d="M -0.5,-0.5 C 99.5,-0.5 199.5,-0.5 299.5,-0.5C 299.5,5.5 299.5,11.5 299.5,17.5C 199.5,17.5 99.5,17.5 -0.5,17.5C -0.5,11.5 -0.5,5.5 -0.5,-0.5 Z"/></g>
<g><path style="opacity:1" fill="#111b1c" d="M -0.5,17.5 C 99.5,17.5 199.5,17.5 299.5,17.5C 299.5,22.8333 299.5,28.1667 299.5,33.5C 217.499,33.6667 135.499,33.5 53.5,33C 51.6503,30.9672 50.9836,30.9672 51.5,33C 49.8876,33.7203 48.3876,33.5536 47,32.5C 46.4867,33.5266 45.9867,34.5266 45.5,35.5C 43.6394,32.9784 41.6394,30.4784 39.5,28C 38.184,27.4719 37.5173,27.9719 37.5,29.5C 36.5206,32.6248 36.1872,35.9581 36.5,39.5C 35.4561,42.1651 34.2895,44.8317 33,47.5C 32.5172,46.552 32.3505,45.552 32.5,44.5C 21.5,44.5 10.5,44.5 -0.5,44.5C -0.5,35.5 -0.5,26.5 -0.5,17.5 Z"/></g>
<g><path style="opacity:1" fill="#182222" d="M 299.5,33.5 C 299.5,37.1667 299.5,40.8333 299.5,44.5C 217.833,44.6667 136.166,44.5 54.5,44C 53.2973,40.8047 52.2973,40.9713 51.5,44.5C 49.2549,41.6803 47.2549,38.6803 45.5,35.5C 45.9867,34.5266 46.4867,33.5266 47,32.5C 48.3876,33.5536 49.8876,33.7203 51.5,33C 50.9836,30.9672 51.6503,30.9672 53.5,33C 135.499,33.5 217.499,33.6667 299.5,33.5 Z"/></g>
<g><path style="opacity:1" fill="#763a2d" d="M 37.5,29.5 C 41.9541,37.3716 46.1207,45.3716 50,53.5C 53.1457,56.1293 55.6457,59.1293 57.5,62.5C 57.5,63.1667 57.5,63.8333 57.5,64.5C 55.245,63.3524 53.4117,61.6857 52,59.5C 51.6924,60.3081 51.1924,60.9747 50.5,61.5C 47.8836,60.97 45.217,59.97 42.5,58.5C 41.5655,57.4324 41.2322,56.099 41.5,54.5C 39.6646,49.4641 37.9979,44.4641 36.5,39.5C 36.1872,35.9581 36.5206,32.6248 37.5,29.5 Z"/></g>
<g><path style="opacity:1" fill="#dc746a" d="M 45.5,35.5 C 47.2549,38.6803 49.2549,41.6803 51.5,44.5C 54.4203,49.4269 57.7536,54.0935 61.5,58.5C 61.5654,58.9382 61.3988,59.2716 61,59.5C 60.3109,58.6433 59.4776,57.9767 58.5,57.5C 57.5481,59.0453 57.2148,60.712 57.5,62.5C 55.6457,59.1293 53.1457,56.1293 50,53.5C 46.1207,45.3716 41.9541,37.3716 37.5,29.5C 37.5173,27.9719 38.184,27.4719 39.5,28C 41.6394,30.4784 43.6394,32.9784 45.5,35.5 Z"/></g>
<g><path style="opacity:1" fill="#1f2a29" d="M 299.5,44.5 C 299.5,47.5 299.5,50.5 299.5,53.5C 296.865,54.1419 294.198,54.8086 291.5,55.5C 218.167,54.7084 144.833,54.5417 71.5,55C 70.0937,57.4493 68.0937,58.4493 65.5,58C 68.3323,56.0924 67.999,55.259 64.5,55.5C 64.4003,58.1085 65.0669,60.4418 66.5,62.5C 64.8333,61.1667 63.1667,59.8333 61.5,58.5C 57.7536,54.0935 54.4203,49.4269 51.5,44.5C 52.2973,40.9713 53.2973,40.8047 54.5,44C 136.166,44.5 217.833,44.6667 299.5,44.5 Z"/></g>
<g><path style="opacity:1" fill="#212b2b" d="M 36.5,39.5 C 37.9979,44.4641 39.6646,49.4641 41.5,54.5C 40.7656,55.8775 40.0989,57.3775 39.5,59C 26.1708,59.4999 12.8375,59.6666 -0.5,59.5C -0.5,54.5 -0.5,49.5 -0.5,44.5C 10.5,44.5 21.5,44.5 32.5,44.5C 32.3505,45.552 32.5172,46.552 33,47.5C 34.2895,44.8317 35.4561,42.1651 36.5,39.5 Z"/></g>
<g><path style="opacity:1" fill="#273231" d="M 299.5,53.5 C 299.5,57.8333 299.5,62.1667 299.5,66.5C 240.899,66.2754 182.232,66.6087 123.5,67.5C 108.606,66.8913 93.773,66.2246 79,65.5C 78.3333,66.8333 77.6667,68.1667 77,69.5C 75.3005,68.5939 73.4672,68.2606 71.5,68.5C 69.8333,67.5 68.5,66.1667 67.5,64.5C 67.1667,63.8333 66.8333,63.1667 66.5,62.5C 65.0669,60.4418 64.4003,58.1085 64.5,55.5C 67.999,55.259 68.3323,56.0924 65.5,58C 68.0937,58.4493 70.0937,57.4493 71.5,55C 144.833,54.5417 218.167,54.7084 291.5,55.5C 294.198,54.8086 296.865,54.1419 299.5,53.5 Z"/></g>
<g><path style="opacity:1" fill="#5c2f20" d="M 42.5,58.5 C 45.217,59.97 47.8836,60.97 50.5,61.5C 51.1924,60.9747 51.6924,60.3081 52,59.5C 53.4117,61.6857 55.245,63.3524 57.5,64.5C 58.3382,64.8417 58.6716,65.5084 58.5,66.5C 57.748,68.1003 56.748,69.6003 55.5,71C 60.3665,78.0277 66.0331,84.1944 72.5,89.5C 74.0761,91.9793 75.0761,94.646 75.5,97.5C 74.1667,96.5 72.8333,95.5 71.5,94.5C 67.8488,89.5762 63.5155,85.2429 58.5,81.5C 59.017,83.0185 58.3504,84.3518 56.5,85.5C 57.1272,86.4168 57.4606,87.4168 57.5,88.5C 56.8333,88.1667 56.1667,87.8333 55.5,87.5C 53.7712,83.0424 51.7712,78.7091 49.5,74.5C 46.7709,69.303 44.4375,63.9696 42.5,58.5 Z"/></g>
<g><path style="opacity:1" fill="#2d3736" d="M 41.5,54.5 C 41.2322,56.099 41.5655,57.4324 42.5,58.5C 44.4375,63.9696 46.7709,69.303 49.5,74.5C 48.2113,75.5009 46.8779,75.3342 45.5,74C 30.1703,73.5001 14.837,73.3334 -0.5,73.5C -0.5,68.8333 -0.5,64.1667 -0.5,59.5C 12.8375,59.6666 26.1708,59.4999 39.5,59C 40.0989,57.3775 40.7656,55.8775 41.5,54.5 Z"/></g>
<g><path style="opacity:1" fill="#2e3838" d="M 299.5,66.5 C 299.5,68.8333 299.5,71.1667 299.5,73.5C 228.833,73.3333 158.166,73.5 87.5,74C 87,74.5 86.5,75 86,75.5C 83.9734,75.0137 81.8067,75.0137 79.5,75.5C 76.7928,73.1568 74.1261,70.8235 71.5,68.5C 73.4672,68.2606 75.3005,68.5939 77,69.5C 77.6667,68.1667 78.3333,66.8333 79,65.5C 93.773,66.2246 108.606,66.8913 123.5,67.5C 182.232,66.6087 240.899,66.2754 299.5,66.5 Z"/></g>
<g><path style="opacity:1" fill="#353f3f" d="M 299.5,73.5 C 299.5,76.5 299.5,79.5 299.5,82.5C 233.929,82.8313 168.429,82.4979 103,81.5C 102.02,82.9814 100.853,84.3147 99.5,85.5C 96.078,82.7104 95.4113,82.877 97.5,86C 96.9056,86.4643 96.2389,86.631 95.5,86.5C 89.4337,83.8081 84.1004,80.1414 79.5,75.5C 81.8067,75.0137 83.9734,75.0137 86,75.5C 86.5,75 87,74.5 87.5,74C 158.166,73.5 228.833,73.3333 299.5,73.5 Z"/></g>
<g><path style="opacity:1" fill="#3e4848" d="M 299.5,82.5 C 299.5,84.8333 299.5,87.1667 299.5,89.5C 260.835,89.4666 222.168,89.4666 183.5,89.5C 179.442,89.1596 175.442,88.4929 171.5,87.5C 163.5,90.1667 155.5,90.1667 147.5,87.5C 138.252,89.4371 128.919,89.9371 119.5,89C 118.975,88.3076 118.308,87.8076 117.5,87.5C 117.511,88.4415 117.011,89.1081 116,89.5C 115.055,89.0946 114.388,88.428 114,87.5C 112.315,89.0175 110.815,90.6841 109.5,92.5C 108.086,89.2498 106.419,88.9165 104.5,91.5C 101.24,90.2262 98.2402,88.5595 95.5,86.5C 96.2389,86.631 96.9056,86.4643 97.5,86C 95.4113,82.877 96.078,82.7104 99.5,85.5C 100.853,84.3147 102.02,82.9814 103,81.5C 168.429,82.4979 233.929,82.8313 299.5,82.5 Z"/></g>
<g><path style="opacity:1" fill="#3b4545" d="M -0.5,73.5 C 14.837,73.3334 30.1703,73.5001 45.5,74C 46.8779,75.3342 48.2113,75.5009 49.5,74.5C 51.7712,78.7091 53.7712,83.0424 55.5,87.5C 51.893,88.824 47.893,89.4907 43.5,89.5C 28.8552,88.9426 14.1886,88.9426 -0.5,89.5C -0.5,84.1667 -0.5,78.8333 -0.5,73.5 Z"/></g>
<g><path style="opacity:1" fill="#444e4e" d="M 299.5,89.5 C 299.5,91.5 299.5,93.5 299.5,95.5C 251.487,95.39 203.487,95.0566 155.5,94.5C 149.04,95.4355 142.707,96.1022 136.5,96.5C 132.827,93.9182 129.16,93.9182 125.5,96.5C 122.833,95.8333 120.167,95.1667 117.5,94.5C 117.213,95.2003 116.88,95.8669 116.5,96.5C 112.111,95.5975 108.111,93.9308 104.5,91.5C 106.419,88.9165 108.086,89.2498 109.5,92.5C 110.815,90.6841 112.315,89.0175 114,87.5C 114.388,88.428 115.055,89.0946 116,89.5C 117.011,89.1081 117.511,88.4415 117.5,87.5C 118.308,87.8076 118.975,88.3076 119.5,89C 128.919,89.9371 138.252,89.4371 147.5,87.5C 155.5,90.1667 163.5,90.1667 171.5,87.5C 175.442,88.4929 179.442,89.1596 183.5,89.5C 222.168,89.4666 260.835,89.4666 299.5,89.5 Z"/></g>
<g><path style="opacity:1" fill="#495252" d="M 55.5,87.5 C 56.1667,87.8333 56.8333,88.1667 57.5,88.5C 58.5804,90.9962 59.9138,93.3295 61.5,95.5C 60.0684,97.4249 58.5684,99.4249 57,101.5C 56.6667,100.833 56.3333,100.167 56,99.5C 37.2238,100.987 18.3905,101.321 -0.5,100.5C -0.5,96.8333 -0.5,93.1667 -0.5,89.5C 14.1886,88.9426 28.8552,88.9426 43.5,89.5C 47.893,89.4907 51.893,88.824 55.5,87.5 Z"/></g>
<g><path style="opacity:1" fill="#4b5453" d="M 299.5,95.5 C 299.5,97.5 299.5,99.5 299.5,101.5C 259.501,100.87 219.501,100.537 179.5,100.5C 167.011,100.52 154.678,101.186 142.5,102.5C 140.578,100.36 138.244,99.5267 135.5,100C 137.332,100.748 138.999,101.748 140.5,103C 139.906,103.464 139.239,103.631 138.5,103.5C 136.784,103.371 135.117,103.038 133.5,102.5C 130.327,101.958 127.327,100.958 124.5,99.5C 121.603,98.871 118.936,97.871 116.5,96.5C 116.88,95.8669 117.213,95.2003 117.5,94.5C 120.167,95.1667 122.833,95.8333 125.5,96.5C 129.16,93.9182 132.827,93.9182 136.5,96.5C 142.707,96.1022 149.04,95.4355 155.5,94.5C 203.487,95.0566 251.487,95.39 299.5,95.5 Z"/></g>
<g><path style="opacity:1" fill="#e7a295" d="M 67.5,64.5 C 68.5,66.1667 69.8333,67.5 71.5,68.5C 74.1261,70.8235 76.7928,73.1568 79.5,75.5C 84.1004,80.1414 89.4337,83.8081 95.5,86.5C 98.2402,88.5595 101.24,90.2262 104.5,91.5C 108.111,93.9308 112.111,95.5975 116.5,96.5C 118.936,97.871 121.603,98.871 124.5,99.5C 123.048,100.302 121.382,100.802 119.5,101C 120.5,101.333 121.5,101.667 122.5,102C 121.663,103.011 121.33,104.178 121.5,105.5C 123.604,105.201 125.604,105.534 127.5,106.5C 127.742,109.594 127.242,112.594 126,115.5C 122.091,114.708 121.591,113.041 124.5,110.5C 120.745,110.079 118.412,108.079 117.5,104.5C 114.867,105.782 114.867,107.116 117.5,108.5C 117.043,109.298 116.376,109.631 115.5,109.5C 114.538,107.014 113.705,107.014 113,109.5C 111.736,107.393 109.903,106.393 107.5,106.5C 107.979,102.508 107.312,98.508 105.5,94.5C 105.288,97.652 105.288,100.985 105.5,104.5C 102.795,104.62 102.128,103.62 103.5,101.5C 102.5,100.167 101.5,98.8333 100.5,97.5C 102.276,96.6852 102.943,95.5185 102.5,94C 101.333,93.5 100.5,92.6667 100,91.5C 98.9326,92.1905 97.7659,92.6905 96.5,93C 98.5951,93.5556 98.7618,94.0556 97,94.5C 92.9077,93.4058 90.5744,90.7392 90,86.5C 88.9805,85.3128 87.8139,84.3128 86.5,83.5C 85.8076,84.0253 85.3076,84.6919 85,85.5C 83.6233,83.2462 82.1233,81.0795 80.5,79C 78.8374,78.7351 77.3374,79.2351 76,80.5C 76.5829,77.8281 75.4162,75.8281 72.5,74.5C 71.1936,73.0878 70.3603,71.4211 70,69.5C 68.2835,70.5523 67.2835,69.8856 67,67.5C 66.6667,67.8333 66.3333,68.1667 66,68.5C 65.2274,66.6476 65.7274,65.3143 67.5,64.5 Z"/></g>
<g><path style="opacity:1" fill="#545c5c" d="M 299.5,101.5 C 299.5,105.5 299.5,109.5 299.5,113.5C 287.116,112.257 274.782,112.591 262.5,114.5C 261.11,112.797 259.61,112.13 258,112.5C 257.517,113.448 257.351,114.448 257.5,115.5C 254.379,113.552 251.379,111.385 248.5,109C 244.141,108.466 239.808,108.632 235.5,109.5C 229.32,111.182 222.987,111.848 216.5,111.5C 210.5,111.5 204.5,111.5 198.5,111.5C 192.491,111.666 186.491,111.499 180.5,111C 169.867,109.245 159.2,107.745 148.5,106.5C 145.167,105.5 141.833,104.5 138.5,103.5C 139.239,103.631 139.906,103.464 140.5,103C 138.999,101.748 137.332,100.748 135.5,100C 138.244,99.5267 140.578,100.36 142.5,102.5C 154.678,101.186 167.011,100.52 179.5,100.5C 219.501,100.537 259.501,100.87 299.5,101.5 Z"/></g>
<g><path style="opacity:1" fill="#361e1a" d="M 71.5,94.5 C 72.1804,95.8275 72.1804,97.4941 71.5,99.5C 73.1667,101.833 74.8333,104.167 76.5,106.5C 76.2907,107.086 75.9574,107.586 75.5,108C 73.5758,108.179 71.9091,108.346 70.5,108.5C 72.4825,110.024 74.8159,111.024 77.5,111.5C 75.5988,112.231 73.5988,112.231 71.5,111.5C 70.2719,110.694 69.2719,109.694 68.5,108.5C 66.4174,104 64.0841,99.6662 61.5,95.5C 59.9138,93.3295 58.5804,90.9962 57.5,88.5C 57.4606,87.4168 57.1272,86.4168 56.5,85.5C 58.3504,84.3518 59.017,83.0185 58.5,81.5C 63.5155,85.2429 67.8488,89.5762 71.5,94.5 Z"/></g>
<g><path style="opacity:1" fill="#535b5c" d="M 61.5,95.5 C 64.0841,99.6662 66.4174,104 68.5,108.5C 67.2101,109.058 66.3768,110.058 66,111.5C 65.2496,110.874 64.4162,110.374 63.5,110C 42.1693,109.5 20.8359,109.333 -0.5,109.5C -0.5,106.5 -0.5,103.5 -0.5,100.5C 18.3905,101.321 37.2238,100.987 56,99.5C 56.3333,100.167 56.6667,100.833 57,101.5C 58.5684,99.4249 60.0684,97.4249 61.5,95.5 Z"/></g>
<g><path style="opacity:1" fill="#5f6666" d="M 68.5,108.5 C 69.2719,109.694 70.2719,110.694 71.5,111.5C 74.8966,119.964 79.5633,127.63 85.5,134.5C 86.5,135.833 87.5,137.167 88.5,138.5C 88.5,140.5 88.5,142.5 88.5,144.5C 84.2677,144.222 80.2677,143.056 76.5,141C 65.7129,133.433 54.0462,127.099 41.5,122C 27.504,121.5 13.504,121.333 -0.5,121.5C -0.5,117.5 -0.5,113.5 -0.5,109.5C 20.8359,109.333 42.1693,109.5 63.5,110C 64.4162,110.374 65.2496,110.874 66,111.5C 66.3768,110.058 67.2101,109.058 68.5,108.5 Z"/></g>
<g><path style="opacity:1" fill="#db9f91" d="M 133.5,102.5 C 135.117,103.038 136.784,103.371 138.5,103.5C 141.833,104.5 145.167,105.5 148.5,106.5C 147.761,106.369 147.094,106.536 146.5,107C 148.651,107.265 150.318,108.265 151.5,110C 150.978,110.95 150.311,111.784 149.5,112.5C 151.423,113.308 153.423,113.808 155.5,114C 152.301,115.679 151.967,117.679 154.5,120C 152.172,119.196 149.839,119.363 147.5,120.5C 144.547,118.68 141.214,117.513 137.5,117C 136.788,115.575 136.621,114.075 137,112.5C 136.097,111.299 134.931,110.465 133.5,110C 134.5,109.333 135.5,109.333 136.5,110C 138.234,111.618 140.067,113.118 142,114.5C 143.523,112.234 145.689,111.067 148.5,111C 145.352,109.924 142.352,108.591 139.5,107C 137.888,106.28 136.388,106.446 135,107.5C 134.097,106.299 132.931,105.465 131.5,105C 132.756,104.583 133.423,103.75 133.5,102.5 Z"/></g>
<g><path style="opacity:1" fill="#eda093" d="M 148.5,106.5 C 159.2,107.745 169.867,109.245 180.5,111C 186.491,111.499 192.491,111.666 198.5,111.5C 204.014,112.167 209.681,112.833 215.5,113.5C 214.388,114.265 213.721,115.265 213.5,116.5C 210.427,117.199 207.427,118.199 204.5,119.5C 203.914,119.291 203.414,118.957 203,118.5C 200.929,119.525 198.762,120.358 196.5,121C 196.833,121.333 197.167,121.667 197.5,122C 190.57,122.149 183.737,122.982 177,124.5C 173.906,123.434 170.74,122.768 167.5,122.5C 165.866,121.028 164.366,119.362 163,117.5C 163.409,119.225 163.242,120.892 162.5,122.5C 161.749,121.624 161.249,120.624 161,119.5C 159.887,120.711 158.72,120.711 157.5,119.5C 154.208,122.528 150.875,122.861 147.5,120.5C 149.839,119.363 152.172,119.196 154.5,120C 151.967,117.679 152.301,115.679 155.5,114C 153.423,113.808 151.423,113.308 149.5,112.5C 150.311,111.784 150.978,110.95 151.5,110C 150.318,108.265 148.651,107.265 146.5,107C 147.094,106.536 147.761,106.369 148.5,106.5 Z"/></g>
<g><path style="opacity:1" fill="#d4746d" d="M 235.5,109.5 C 239.418,110.311 243.418,111.311 247.5,112.5C 248.742,114.733 250.076,116.899 251.5,119C 249.253,120.655 246.92,120.988 244.5,120C 245.833,120.667 245.833,121.333 244.5,122C 245.672,122.419 246.672,123.085 247.5,124C 245.559,124.304 243.893,125.137 242.5,126.5C 238.734,125.267 234.901,124.267 231,123.5C 229.11,123.785 227.777,124.785 227,126.5C 226.874,123.576 225.541,120.909 223,118.5C 222.346,119.696 221.846,119.696 221.5,118.5C 223.078,117.702 224.744,117.202 226.5,117C 223.531,116.591 220.531,115.924 217.5,115C 216.663,113.989 216.33,112.822 216.5,111.5C 222.987,111.848 229.32,111.182 235.5,109.5 Z"/></g>
<g><path style="opacity:1" fill="#646b6c" d="M 299.5,113.5 C 299.5,116.167 299.5,118.833 299.5,121.5C 289.737,120.876 280.237,121.543 271,123.5C 268.787,119.484 267.787,119.484 268,123.5C 266.414,122.624 264.914,121.624 263.5,120.5C 262.893,120.624 262.56,120.957 262.5,121.5C 260.11,120.109 258.443,118.109 257.5,115.5C 257.351,114.448 257.517,113.448 258,112.5C 259.61,112.13 261.11,112.797 262.5,114.5C 274.782,112.591 287.116,112.257 299.5,113.5 Z"/></g>
<g><path style="opacity:1" fill="#1e1717" d="M 71.5,94.5 C 72.8333,95.5 74.1667,96.5 75.5,97.5C 85.2007,107.201 94.8674,116.867 104.5,126.5C 102.254,127.21 99.9204,127.71 97.5,128C 99.0441,128.29 100.377,128.956 101.5,130C 99.8739,129.805 98.2072,129.805 96.5,130C 95.9698,131.744 95.9698,133.244 96.5,134.5C 92.4267,134.772 88.76,134.772 85.5,134.5C 79.5633,127.63 74.8966,119.964 71.5,111.5C 73.5988,112.231 75.5988,112.231 77.5,111.5C 74.8159,111.024 72.4825,110.024 70.5,108.5C 71.9091,108.346 73.5758,108.179 75.5,108C 75.9574,107.586 76.2907,107.086 76.5,106.5C 74.8333,104.167 73.1667,101.833 71.5,99.5C 72.1804,97.4941 72.1804,95.8275 71.5,94.5 Z"/></g>
<g><path style="opacity:1" fill="#f49e95" d="M 124.5,99.5 C 127.327,100.958 130.327,101.958 133.5,102.5C 133.423,103.75 132.756,104.583 131.5,105C 132.931,105.465 134.097,106.299 135,107.5C 136.388,106.446 137.888,106.28 139.5,107C 142.352,108.591 145.352,109.924 148.5,111C 145.689,111.067 143.523,112.234 142,114.5C 140.067,113.118 138.234,111.618 136.5,110C 135.5,109.333 134.5,109.333 133.5,110C 134.931,110.465 136.097,111.299 137,112.5C 136.621,114.075 136.788,115.575 137.5,117C 141.214,117.513 144.547,118.68 147.5,120.5C 150.875,122.861 154.208,122.528 157.5,119.5C 158.72,120.711 159.887,120.711 161,119.5C 161.249,120.624 161.749,121.624 162.5,122.5C 163.242,120.892 163.409,119.225 163,117.5C 164.366,119.362 165.866,121.028 167.5,122.5C 165.488,122.735 163.155,123.235 160.5,124C 159.131,126.837 157.131,127.337 154.5,125.5C 149.442,127.764 144.109,129.098 138.5,129.5C 138.5,128.167 138.5,126.833 138.5,125.5C 137.167,125.5 135.833,125.5 134.5,125.5C 134.607,123.097 133.607,121.264 131.5,120C 127.461,117.95 123.128,117.116 118.5,117.5C 118.421,116.07 118.754,114.736 119.5,113.5C 118.451,111.784 117.118,110.451 115.5,109.5C 116.376,109.631 117.043,109.298 117.5,108.5C 114.867,107.116 114.867,105.782 117.5,104.5C 118.412,108.079 120.745,110.079 124.5,110.5C 121.591,113.041 122.091,114.708 126,115.5C 127.242,112.594 127.742,109.594 127.5,106.5C 125.604,105.534 123.604,105.201 121.5,105.5C 121.33,104.178 121.663,103.011 122.5,102C 121.5,101.667 120.5,101.333 119.5,101C 121.382,100.802 123.048,100.302 124.5,99.5 Z"/></g>
<g><path style="opacity:1" fill="#e2867d" d="M 61.5,58.5 C 63.1667,59.8333 64.8333,61.1667 66.5,62.5C 66.8333,63.1667 67.1667,63.8333 67.5,64.5C 65.7274,65.3143 65.2274,66.6476 66,68.5C 66.3333,68.1667 66.6667,67.8333 67,67.5C 67.2835,69.8856 68.2835,70.5523 70,69.5C 70.3603,71.4211 71.1936,73.0878 72.5,74.5C 75.4162,75.8281 76.5829,77.8281 76,80.5C 77.3374,79.2351 78.8374,78.7351 80.5,79C 82.1233,81.0795 83.6233,83.2462 85,85.5C 85.3076,84.6919 85.8076,84.0253 86.5,83.5C 87.8139,84.3128 88.9805,85.3128 90,86.5C 90.5744,90.7392 92.9077,93.4058 97,94.5C 98.7618,94.0556 98.5951,93.5556 96.5,93C 97.7659,92.6905 98.9326,92.1905 100,91.5C 100.5,92.6667 101.333,93.5 102.5,94C 102.943,95.5185 102.276,96.6852 100.5,97.5C 101.5,98.8333 102.5,100.167 103.5,101.5C 102.128,103.62 102.795,104.62 105.5,104.5C 105.288,100.985 105.288,97.652 105.5,94.5C 107.312,98.508 107.979,102.508 107.5,106.5C 109.903,106.393 111.736,107.393 113,109.5C 113.705,107.014 114.538,107.014 115.5,109.5C 114.698,110.952 114.198,112.618 114,114.5C 110.564,109.034 109.898,109.367 112,115.5C 113.011,116.337 114.178,116.67 115.5,116.5C 115.5,117.5 115.5,118.5 115.5,119.5C 119.502,119.319 121.002,120.985 120,124.5C 122.411,124.771 124.911,124.438 127.5,123.5C 127.178,125.722 127.845,127.556 129.5,129C 128.5,129.333 127.5,129.667 126.5,130C 130.51,130.357 134.51,130.19 138.5,129.5C 144.109,129.098 149.442,127.764 154.5,125.5C 157.131,127.337 159.131,126.837 160.5,124C 163.155,123.235 165.488,122.735 167.5,122.5C 170.74,122.768 173.906,123.434 177,124.5C 183.737,122.982 190.57,122.149 197.5,122C 197.167,121.667 196.833,121.333 196.5,121C 198.762,120.358 200.929,119.525 203,118.5C 203.414,118.957 203.914,119.291 204.5,119.5C 207.427,118.199 210.427,117.199 213.5,116.5C 213.5,117.5 213.5,118.5 213.5,119.5C 212.5,119.5 211.5,119.5 210.5,119.5C 210.5,120.5 210.5,121.5 210.5,122.5C 207.627,120.927 204.961,121.26 202.5,123.5C 204.375,124.409 205.708,125.743 206.5,127.5C 203.649,126.268 200.815,124.935 198,123.5C 196.467,124.695 194.967,124.695 193.5,123.5C 191.868,124.297 190.368,125.297 189,126.5C 184.426,125.675 179.926,126.175 175.5,128C 177.017,129.685 178.684,131.185 180.5,132.5C 180.167,132.833 179.833,133.167 179.5,133.5C 177.024,132.191 175.024,130.358 173.5,128C 172.668,127.312 172.002,127.479 171.5,128.5C 172.326,129.451 172.492,130.451 172,131.5C 170.647,130.315 169.48,128.981 168.5,127.5C 166.453,129.736 164.12,130.069 161.5,128.5C 151.949,130.257 142.283,132.257 132.5,134.5C 130.775,132.908 129.775,133.242 129.5,135.5C 128.833,135.5 128.167,135.5 127.5,135.5C 126.596,134.791 126.263,133.791 126.5,132.5C 125.448,132.649 124.448,132.483 123.5,132C 116.295,125.579 108.628,119.912 100.5,115C 101.973,114.29 102.64,113.124 102.5,111.5C 92.7824,105.615 85.2824,97.6146 80,87.5C 75.0526,84.5521 70.7193,80.8854 67,76.5C 66.5172,75.552 66.3505,74.552 66.5,73.5C 65.5,73.5 64.5,73.5 63.5,73.5C 63.031,70.3567 61.3644,68.0233 58.5,66.5C 58.6716,65.5084 58.3382,64.8417 57.5,64.5C 57.5,63.8333 57.5,63.1667 57.5,62.5C 57.2148,60.712 57.5481,59.0453 58.5,57.5C 59.4776,57.9767 60.3109,58.6433 61,59.5C 61.3988,59.2716 61.5654,58.9382 61.5,58.5 Z"/></g>
<g><path style="opacity:1" fill="#707777" d="M -0.5,121.5 C 13.504,121.333 27.504,121.5 41.5,122C 54.0462,127.099 65.7129,133.433 76.5,141C 80.2677,143.056 84.2677,144.222 88.5,144.5C 90.4293,146.148 92.4293,147.815 94.5,149.5C 93.7573,150.182 93.0906,150.849 92.5,151.5C 87.9413,149.472 83.608,146.972 79.5,144C 76.9036,142.864 74.237,142.031 71.5,141.5C 65.21,135.689 57.71,132.022 49,130.5C 32.5352,131.478 16.0352,131.812 -0.5,131.5C -0.5,128.167 -0.5,124.833 -0.5,121.5 Z"/></g>
<g><path style="opacity:1" fill="#151413" d="M 104.5,126.5 C 112.588,132.858 120.588,139.191 128.5,145.5C 131.5,148.167 134.5,150.833 137.5,153.5C 128.651,153.174 119.984,153.507 111.5,154.5C 106.821,154.666 102.155,154.499 97.5,154C 95.5087,153.626 93.842,152.793 92.5,151.5C 93.0906,150.849 93.7573,150.182 94.5,149.5C 92.4293,147.815 90.4293,146.148 88.5,144.5C 90.1172,143.962 91.7839,143.629 93.5,143.5C 93.4633,140.298 91.7967,138.632 88.5,138.5C 87.5,137.167 86.5,135.833 85.5,134.5C 88.76,134.772 92.4267,134.772 96.5,134.5C 95.9698,133.244 95.9698,131.744 96.5,130C 98.2072,129.805 99.8739,129.805 101.5,130C 100.377,128.956 99.0441,128.29 97.5,128C 99.9204,127.71 102.254,127.21 104.5,126.5 Z"/></g>
<g><path style="opacity:1" fill="#d69685" d="M 115.5,109.5 C 117.118,110.451 118.451,111.784 119.5,113.5C 118.754,114.736 118.421,116.07 118.5,117.5C 123.128,117.116 127.461,117.95 131.5,120C 133.607,121.264 134.607,123.097 134.5,125.5C 135.833,125.5 137.167,125.5 138.5,125.5C 138.5,126.833 138.5,128.167 138.5,129.5C 134.51,130.19 130.51,130.357 126.5,130C 127.5,129.667 128.5,129.333 129.5,129C 127.845,127.556 127.178,125.722 127.5,123.5C 124.911,124.438 122.411,124.771 120,124.5C 121.002,120.985 119.502,119.319 115.5,119.5C 115.5,118.5 115.5,117.5 115.5,116.5C 114.178,116.67 113.011,116.337 112,115.5C 109.898,109.367 110.564,109.034 114,114.5C 114.198,112.618 114.698,110.952 115.5,109.5 Z"/></g>
<g><path style="opacity:1" fill="#727979" d="M 299.5,121.5 C 299.5,126.167 299.5,130.833 299.5,135.5C 292.578,135.812 285.744,135.479 279,134.5C 278.506,136.134 278.34,137.801 278.5,139.5C 277.272,138.694 276.272,137.694 275.5,136.5C 271.54,131.205 267.207,126.205 262.5,121.5C 262.56,120.957 262.893,120.624 263.5,120.5C 264.914,121.624 266.414,122.624 268,123.5C 267.787,119.484 268.787,119.484 271,123.5C 280.237,121.543 289.737,120.876 299.5,121.5 Z"/></g>
<g><path style="opacity:1" fill="#663626" d="M 58.5,66.5 C 61.3644,68.0233 63.031,70.3567 63.5,73.5C 64.5,73.5 65.5,73.5 66.5,73.5C 66.3505,74.552 66.5172,75.552 67,76.5C 70.7193,80.8854 75.0526,84.5521 80,87.5C 85.2824,97.6146 92.7824,105.615 102.5,111.5C 102.64,113.124 101.973,114.29 100.5,115C 108.628,119.912 116.295,125.579 123.5,132C 124.448,132.483 125.448,132.649 126.5,132.5C 126.263,133.791 126.596,134.791 127.5,135.5C 127.833,136.167 128.167,136.833 128.5,137.5C 127.624,137.369 126.957,137.702 126.5,138.5C 127.154,140.115 127.654,141.782 128,143.5C 128.333,143.167 128.667,142.833 129,142.5C 130.067,143.191 131.234,143.691 132.5,144C 130.942,144.21 129.609,144.71 128.5,145.5C 120.588,139.191 112.588,132.858 104.5,126.5C 94.8674,116.867 85.2007,107.201 75.5,97.5C 75.0761,94.646 74.0761,91.9793 72.5,89.5C 66.0331,84.1944 60.3665,78.0277 55.5,71C 56.748,69.6003 57.748,68.1003 58.5,66.5 Z"/></g>
<g><path style="opacity:1" fill="#7d8483" d="M 71.5,141.5 C 47.5574,140.835 23.5574,140.502 -0.5,140.5C -0.5,137.5 -0.5,134.5 -0.5,131.5C 16.0352,131.812 32.5352,131.478 49,130.5C 57.71,132.022 65.21,135.689 71.5,141.5 Z"/></g>
<g><path style="opacity:1" fill="#f2948a" d="M 257.5,115.5 C 258.443,118.109 260.11,120.109 262.5,121.5C 267.207,126.205 271.54,131.205 275.5,136.5C 274.992,138.233 274.159,138.566 273,137.5C 272.942,140.559 271.609,142.892 269,144.5C 267.286,143.075 265.953,143.408 265,145.5C 264.692,144.692 264.192,144.025 263.5,143.5C 261.009,143.909 259.009,145.076 257.5,147C 258.167,147.167 258.833,147.333 259.5,147.5C 263.451,144.555 264.285,145.222 262,149.5C 259.19,149.076 256.356,149.576 253.5,151C 254.711,151.893 254.711,152.726 253.5,153.5C 252.914,153.291 252.414,152.957 252,152.5C 251.86,154.256 252.36,155.922 253.5,157.5C 252.019,158.48 250.685,159.647 249.5,161C 250.167,161.333 250.833,161.667 251.5,162C 250.619,162.708 249.953,163.542 249.5,164.5C 248.883,164.611 248.383,164.944 248,165.5C 243.362,162.6 239.862,158.6 237.5,153.5C 239.748,152.676 239.914,151.676 238,150.5C 237.667,150.833 237.333,151.167 237,151.5C 234.642,149.976 232.809,147.976 231.5,145.5C 229.604,144.534 227.604,144.201 225.5,144.5C 225.777,141.552 225.444,138.719 224.5,136C 221.5,135 218.5,134 215.5,133C 214.15,131.282 212.983,129.448 212,127.5C 211.667,128.167 211.333,128.833 211,129.5C 209.89,127.963 208.39,127.297 206.5,127.5C 205.708,125.743 204.375,124.409 202.5,123.5C 204.961,121.26 207.627,120.927 210.5,122.5C 210.5,121.5 210.5,120.5 210.5,119.5C 211.5,119.5 212.5,119.5 213.5,119.5C 213.5,118.5 213.5,117.5 213.5,116.5C 213.721,115.265 214.388,114.265 215.5,113.5C 209.681,112.833 204.014,112.167 198.5,111.5C 204.5,111.5 210.5,111.5 216.5,111.5C 216.33,112.822 216.663,113.989 217.5,115C 220.531,115.924 223.531,116.591 226.5,117C 224.744,117.202 223.078,117.702 221.5,118.5C 221.846,119.696 222.346,119.696 223,118.5C 225.541,120.909 226.874,123.576 227,126.5C 227.777,124.785 229.11,123.785 231,123.5C 234.901,124.267 238.734,125.267 242.5,126.5C 243.893,125.137 245.559,124.304 247.5,124C 246.672,123.085 245.672,122.419 244.5,122C 245.833,121.333 245.833,120.667 244.5,120C 246.92,120.988 249.253,120.655 251.5,119C 250.076,116.899 248.742,114.733 247.5,112.5C 243.418,111.311 239.418,110.311 235.5,109.5C 239.808,108.632 244.141,108.466 248.5,109C 251.379,111.385 254.379,113.552 257.5,115.5 Z"/></g>
<g><path style="opacity:1" fill="#b47764" d="M 127.5,135.5 C 128.167,135.5 128.833,135.5 129.5,135.5C 133.617,138.068 137.617,140.902 141.5,144C 141.272,144.399 140.938,144.565 140.5,144.5C 139.5,144.5 138.5,144.5 137.5,144.5C 134.412,142.345 131.412,140.012 128.5,137.5C 128.167,136.833 127.833,136.167 127.5,135.5 Z"/></g>
<g><path style="opacity:1" fill="#f49d92" d="M 206.5,127.5 C 206.995,129.482 207.495,131.482 208,133.5C 208.333,132.167 208.667,130.833 209,129.5C 211.13,132.23 213.797,134.23 217,135.5C 218.202,137.677 218.702,140.011 218.5,142.5C 222.088,144.647 226.088,146.147 230.5,147C 232.563,149.511 234.063,152.344 235,155.5C 241.419,158.755 242.919,163.255 239.5,169C 240.022,169.561 240.355,170.228 240.5,171C 237.608,173.083 235.275,175.583 233.5,178.5C 229.305,178.681 225.805,180.347 223,183.5C 222.135,181.112 222.968,179.612 225.5,179C 224.5,178.667 223.5,178.333 222.5,178C 223.131,175.645 223.131,173.478 222.5,171.5C 223.192,172.025 223.692,172.692 224,173.5C 224.615,171.884 225.615,170.551 227,169.5C 229.302,174.428 232.468,175.262 236.5,172C 234.697,171.363 233.364,170.197 232.5,168.5C 231.833,169.5 231.167,170.5 230.5,171.5C 229.483,169.163 227.816,167.496 225.5,166.5C 226.833,165.833 228.167,165.167 229.5,164.5C 228.975,163.808 228.308,163.308 227.5,163C 228.833,162.333 229.833,161.333 230.5,160C 222.967,159.407 220.967,162.407 224.5,169C 222.253,170.309 219.92,170.975 217.5,171C 220.817,169.915 221.151,168.415 218.5,166.5C 215.329,167.006 212.996,168.672 211.5,171.5C 210.269,170.349 210.269,169.183 211.5,168C 208.853,167.685 208.187,166.518 209.5,164.5C 208.138,162.573 207.138,160.573 206.5,158.5C 203.642,158.405 201.309,157.238 199.5,155C 200.056,154.617 200.389,154.117 200.5,153.5C 204.841,154.336 209.174,154.836 213.5,155C 213.167,154.667 212.833,154.333 212.5,154C 213.448,153.517 214.448,153.351 215.5,153.5C 215.679,155.606 216.679,157.272 218.5,158.5C 219.842,156.995 221.508,156.328 223.5,156.5C 223.657,155.127 223.49,153.793 223,152.5C 220.282,153.013 217.449,153.013 214.5,152.5C 214.404,148.689 213.738,148.689 212.5,152.5C 212.598,151.384 212.098,150.384 211,149.5C 209.856,149.911 208.689,150.244 207.5,150.5C 205.203,149.351 202.87,148.185 200.5,147C 202.952,146.71 205.285,146.044 207.5,145C 203.987,146.127 200.653,145.627 197.5,143.5C 196.304,143.846 196.304,144.346 197.5,145C 196.128,145.402 194.795,145.902 193.5,146.5C 191.565,146.873 189.732,146.207 188,144.5C 186.527,144.903 185.194,145.57 184,146.5C 183.646,144.193 182.646,143.859 181,145.5C 179.908,144.704 178.741,144.037 177.5,143.5C 175.895,144.43 174.395,144.43 173,143.5C 171.7,146.081 169.866,146.748 167.5,145.5C 166.328,145.919 165.328,146.585 164.5,147.5C 163.833,146.833 163.167,146.167 162.5,145.5C 159.603,146.878 156.936,148.544 154.5,150.5C 152.046,149.528 149.879,148.195 148,146.5C 147.617,147.056 147.117,147.389 146.5,147.5C 143.784,147.614 141.784,146.614 140.5,144.5C 140.938,144.565 141.272,144.399 141.5,144C 137.617,140.902 133.617,138.068 129.5,135.5C 129.775,133.242 130.775,132.908 132.5,134.5C 142.283,132.257 151.949,130.257 161.5,128.5C 164.12,130.069 166.453,129.736 168.5,127.5C 169.48,128.981 170.647,130.315 172,131.5C 172.492,130.451 172.326,129.451 171.5,128.5C 172.002,127.479 172.668,127.312 173.5,128C 175.024,130.358 177.024,132.191 179.5,133.5C 179.833,133.167 180.167,132.833 180.5,132.5C 178.684,131.185 177.017,129.685 175.5,128C 179.926,126.175 184.426,125.675 189,126.5C 190.368,125.297 191.868,124.297 193.5,123.5C 194.967,124.695 196.467,124.695 198,123.5C 200.815,124.935 203.649,126.268 206.5,127.5 Z"/></g>
<g><path style="opacity:1" fill="#71503b" d="M 88.5,138.5 C 91.7967,138.632 93.4633,140.298 93.5,143.5C 91.7839,143.629 90.1172,143.962 88.5,144.5C 88.5,142.5 88.5,140.5 88.5,138.5 Z"/></g>
<g><path style="opacity:1" fill="#d68d80" d="M 275.5,136.5 C 276.272,137.694 277.272,138.694 278.5,139.5C 277.29,144.232 274.623,148.066 270.5,151C 263.958,156.382 257.291,161.548 250.5,166.5C 250.167,165.833 249.833,165.167 249.5,164.5C 249.953,163.542 250.619,162.708 251.5,162C 250.833,161.667 250.167,161.333 249.5,161C 250.685,159.647 252.019,158.48 253.5,157.5C 252.36,155.922 251.86,154.256 252,152.5C 252.414,152.957 252.914,153.291 253.5,153.5C 254.711,152.726 254.711,151.893 253.5,151C 256.356,149.576 259.19,149.076 262,149.5C 264.285,145.222 263.451,144.555 259.5,147.5C 258.833,147.333 258.167,147.167 257.5,147C 259.009,145.076 261.009,143.909 263.5,143.5C 264.192,144.025 264.692,144.692 265,145.5C 265.953,143.408 267.286,143.075 269,144.5C 271.609,142.892 272.942,140.559 273,137.5C 274.159,138.566 274.992,138.233 275.5,136.5 Z"/></g>
<g><path style="opacity:1" fill="#8b9191" d="M 299.5,135.5 C 299.5,141.167 299.5,146.833 299.5,152.5C 290.75,152.09 282.084,152.59 273.5,154C 271.714,154.785 270.214,155.951 269,157.5C 267.951,156.483 266.784,156.316 265.5,157C 265.899,158.294 265.899,159.794 265.5,161.5C 263.52,162.484 261.853,163.817 260.5,165.5C 259.549,164.674 258.549,164.508 257.5,165C 257.833,165.333 258.167,165.667 258.5,166C 257.5,166.333 256.5,166.667 255.5,167C 252.571,172.393 248.237,174.559 242.5,173.5C 245.141,171.196 247.808,168.862 250.5,166.5C 257.291,161.548 263.958,156.382 270.5,151C 274.623,148.066 277.29,144.232 278.5,139.5C 278.34,137.801 278.506,136.134 279,134.5C 285.744,135.479 292.578,135.812 299.5,135.5 Z"/></g>
<g><path style="opacity:1" fill="#d57b71" d="M 206.5,127.5 C 208.39,127.297 209.89,127.963 211,129.5C 211.333,128.833 211.667,128.167 212,127.5C 212.983,129.448 214.15,131.282 215.5,133C 218.5,134 221.5,135 224.5,136C 225.444,138.719 225.777,141.552 225.5,144.5C 227.604,144.201 229.604,144.534 231.5,145.5C 232.809,147.976 234.642,149.976 237,151.5C 237.333,151.167 237.667,150.833 238,150.5C 239.914,151.676 239.748,152.676 237.5,153.5C 239.862,158.6 243.362,162.6 248,165.5C 248.383,164.944 248.883,164.611 249.5,164.5C 249.833,165.167 250.167,165.833 250.5,166.5C 247.808,168.862 245.141,171.196 242.5,173.5C 239.688,175.408 236.688,177.075 233.5,178.5C 235.275,175.583 237.608,173.083 240.5,171C 240.355,170.228 240.022,169.561 239.5,169C 242.919,163.255 241.419,158.755 235,155.5C 234.063,152.344 232.563,149.511 230.5,147C 226.088,146.147 222.088,144.647 218.5,142.5C 218.702,140.011 218.202,137.677 217,135.5C 213.797,134.23 211.13,132.23 209,129.5C 208.667,130.833 208.333,132.167 208,133.5C 207.495,131.482 206.995,129.482 206.5,127.5 Z"/></g>
<g><path style="opacity:1" fill="#8f9595" d="M -0.5,140.5 C 23.5574,140.502 47.5574,140.835 71.5,141.5C 74.237,142.031 76.9036,142.864 79.5,144C 83.608,146.972 87.9413,149.472 92.5,151.5C 93.842,152.793 95.5087,153.626 97.5,154C 102.155,154.499 106.821,154.666 111.5,154.5C 118.829,155.497 125.495,158.164 131.5,162.5C 124.357,161.064 117.19,159.731 110,158.5C 103.374,159.284 96.8741,159.284 90.5,158.5C 89.5,158 88.5,157.5 87.5,157C 87.8333,156.667 88.1667,156.333 88.5,156C 85.5,155.667 82.5,155.333 79.5,155C 52.8354,154.5 26.1687,154.333 -0.5,154.5C -0.5,149.833 -0.5,145.167 -0.5,140.5 Z"/></g>
<g><path style="opacity:1" fill="#9ea3a3" d="M -0.5,154.5 C 26.1687,154.333 52.8354,154.5 79.5,155C 82.5,155.333 85.5,155.667 88.5,156C 88.1667,156.333 87.8333,156.667 87.5,157C 88.5,157.5 89.5,158 90.5,158.5C 96.8741,159.284 103.374,159.284 110,158.5C 117.19,159.731 124.357,161.064 131.5,162.5C 137.145,165.482 143.145,167.648 149.5,169C 153.477,170.469 156.81,172.635 159.5,175.5C 154.86,173.142 149.86,171.975 144.5,172C 143.663,170.989 143.33,169.822 143.5,168.5C 135.744,165.938 127.744,164.438 119.5,164C 79.5014,163.5 39.5014,163.333 -0.5,163.5C -0.5,160.5 -0.5,157.5 -0.5,154.5 Z"/></g>
<g><path style="opacity:1" fill="#4f2c1e" d="M 128.5,137.5 C 131.412,140.012 134.412,142.345 137.5,144.5C 138.991,146.557 140.658,148.557 142.5,150.5C 149.711,153.893 156.711,157.726 163.5,162C 165.167,162.333 166.833,162.667 168.5,163C 167.833,163.667 167.167,164.333 166.5,165C 168.002,165.583 169.335,166.416 170.5,167.5C 169.802,169.037 169.469,170.37 169.5,171.5C 158.51,166.007 147.843,160.007 137.5,153.5C 134.5,150.833 131.5,148.167 128.5,145.5C 129.609,144.71 130.942,144.21 132.5,144C 131.234,143.691 130.067,143.191 129,142.5C 128.667,142.833 128.333,143.167 128,143.5C 127.654,141.782 127.154,140.115 126.5,138.5C 126.957,137.702 127.624,137.369 128.5,137.5 Z"/></g>
<g><path style="opacity:1" fill="#664331" d="M 137.5,144.5 C 138.5,144.5 139.5,144.5 140.5,144.5C 141.784,146.614 143.784,147.614 146.5,147.5C 147.031,149.624 148.365,151.124 150.5,152C 158.758,155.941 166.758,160.274 174.5,165C 176.26,168.775 177.927,172.608 179.5,176.5C 184.061,178.307 188.728,179.807 193.5,181C 197.951,184.27 199.951,188.436 199.5,193.5C 197.254,194.455 194.921,195.122 192.5,195.5C 192.335,193.173 191.669,191.007 190.5,189C 187.274,187.801 183.941,187.301 180.5,187.5C 180.167,187.5 179.833,187.5 179.5,187.5C 178.71,186.599 177.71,185.932 176.5,185.5C 173.796,181.079 171.463,176.412 169.5,171.5C 169.469,170.37 169.802,169.037 170.5,167.5C 169.335,166.416 168.002,165.583 166.5,165C 167.167,164.333 167.833,163.667 168.5,163C 166.833,162.667 165.167,162.333 163.5,162C 156.711,157.726 149.711,153.893 142.5,150.5C 140.658,148.557 138.991,146.557 137.5,144.5 Z"/></g>
<g><path style="opacity:1" fill="#d79f8b" d="M 200.5,153.5 C 200.389,154.117 200.056,154.617 199.5,155C 201.309,157.238 203.642,158.405 206.5,158.5C 206.649,159.552 206.483,160.552 206,161.5C 205.577,160.044 204.744,159.544 203.5,160C 204.711,160.893 204.711,161.726 203.5,162.5C 202.265,161.66 201.265,160.66 200.5,159.5C 199.64,157.03 198.306,156.863 196.5,159C 198.405,159.826 198.739,160.993 197.5,162.5C 195.128,159.879 194.462,160.212 195.5,163.5C 195.032,165.134 194.032,166.3 192.5,167C 193.448,167.483 194.448,167.649 195.5,167.5C 195.799,169.604 195.466,171.604 194.5,173.5C 192.898,172.45 192.065,173.117 192,175.5C 191.696,173.559 190.863,171.893 189.5,170.5C 190.046,169.228 190.379,167.894 190.5,166.5C 189.16,163.47 187.826,160.47 186.5,157.5C 186.68,156.446 187.013,155.446 187.5,154.5C 186.092,153.757 184.759,152.923 183.5,152C 185.402,151.801 186.902,150.967 188,149.5C 189.252,151.001 190.252,152.668 191,154.5C 193.471,153.597 195.638,154.263 197.5,156.5C 198.141,155.007 199.141,154.007 200.5,153.5 Z"/></g>
<g><path style="opacity:1" fill="#a9acad" d="M -0.5,163.5 C 39.5014,163.333 79.5014,163.5 119.5,164C 127.744,164.438 135.744,165.938 143.5,168.5C 143.33,169.822 143.663,170.989 144.5,172C 149.86,171.975 154.86,173.142 159.5,175.5C 163.363,178.18 167.03,181.18 170.5,184.5C 172.409,185.348 174.409,185.682 176.5,185.5C 177.71,185.932 178.71,186.599 179.5,187.5C 171.291,188.216 164.958,185.216 160.5,178.5C 155.758,175.745 151.091,174.245 146.5,174C 147.696,174.654 147.696,175.154 146.5,175.5C 143.055,173.672 139.388,172.338 135.5,171.5C 90.1716,170.5 44.8382,170.167 -0.5,170.5C -0.5,168.167 -0.5,165.833 -0.5,163.5 Z"/></g>
<g><path style="opacity:1" fill="#5b6161" d="M 111.5,154.5 C 119.984,153.507 128.651,153.174 137.5,153.5C 147.843,160.007 158.51,166.007 169.5,171.5C 171.463,176.412 173.796,181.079 176.5,185.5C 174.409,185.682 172.409,185.348 170.5,184.5C 167.03,181.18 163.363,178.18 159.5,175.5C 156.81,172.635 153.477,170.469 149.5,169C 143.145,167.648 137.145,165.482 131.5,162.5C 125.495,158.164 118.829,155.497 111.5,154.5 Z"/></g>
<g><path style="opacity:1" fill="#a7abac" d="M 299.5,152.5 C 299.5,160.167 299.5,167.833 299.5,175.5C 283.642,175.796 267.809,175.462 252,174.5C 245.147,177.812 237.981,180.479 230.5,182.5C 230.5,182.167 230.5,181.833 230.5,181.5C 232.19,181.144 233.19,180.144 233.5,178.5C 236.688,177.075 239.688,175.408 242.5,173.5C 248.237,174.559 252.571,172.393 255.5,167C 256.5,166.667 257.5,166.333 258.5,166C 258.167,165.667 257.833,165.333 257.5,165C 258.549,164.508 259.549,164.674 260.5,165.5C 261.853,163.817 263.52,162.484 265.5,161.5C 265.899,159.794 265.899,158.294 265.5,157C 266.784,156.316 267.951,156.483 269,157.5C 270.214,155.951 271.714,154.785 273.5,154C 282.084,152.59 290.75,152.09 299.5,152.5 Z"/></g>
<g><path style="opacity:1" fill="#e19387" d="M 200.5,153.5 C 199.141,154.007 198.141,155.007 197.5,156.5C 195.638,154.263 193.471,153.597 191,154.5C 190.252,152.668 189.252,151.001 188,149.5C 186.902,150.967 185.402,151.801 183.5,152C 184.759,152.923 186.092,153.757 187.5,154.5C 187.013,155.446 186.68,156.446 186.5,157.5C 187.826,160.47 189.16,163.47 190.5,166.5C 190.379,167.894 190.046,169.228 189.5,170.5C 190.863,171.893 191.696,173.559 192,175.5C 192.065,173.117 192.898,172.45 194.5,173.5C 195.466,171.604 195.799,169.604 195.5,167.5C 194.448,167.649 193.448,167.483 192.5,167C 194.032,166.3 195.032,165.134 195.5,163.5C 194.462,160.212 195.128,159.879 197.5,162.5C 198.739,160.993 198.405,159.826 196.5,159C 198.306,156.863 199.64,157.03 200.5,159.5C 200.714,161.144 200.38,162.644 199.5,164C 202.003,165.784 202.003,167.451 199.5,169C 200.641,169.741 200.641,170.575 199.5,171.5C 202.367,172.96 204.701,174.96 206.5,177.5C 205.397,177.998 204.397,178.331 203.5,178.5C 204.833,179.167 206.167,179.833 207.5,180.5C 206.187,182.518 206.853,183.685 209.5,184C 207.89,185.495 206.224,185.661 204.5,184.5C 203.218,186.179 202.218,188.013 201.5,190C 203.131,191.836 203.798,191.336 203.5,188.5C 205.743,187.688 208.076,187.021 210.5,186.5C 211.833,186.833 213.167,187.167 214.5,187.5C 211.869,189.005 212.203,189.671 215.5,189.5C 212.389,191.559 209.056,193.392 205.5,195C 203.16,195.748 201.16,195.248 199.5,193.5C 199.951,188.436 197.951,184.27 193.5,181C 188.728,179.807 184.061,178.307 179.5,176.5C 177.927,172.608 176.26,168.775 174.5,165C 166.758,160.274 158.758,155.941 150.5,152C 148.365,151.124 147.031,149.624 146.5,147.5C 147.117,147.389 147.617,147.056 148,146.5C 149.879,148.195 152.046,149.528 154.5,150.5C 156.936,148.544 159.603,146.878 162.5,145.5C 163.167,146.167 163.833,146.833 164.5,147.5C 165.328,146.585 166.328,145.919 167.5,145.5C 169.866,146.748 171.7,146.081 173,143.5C 174.395,144.43 175.895,144.43 177.5,143.5C 178.741,144.037 179.908,144.704 181,145.5C 182.646,143.859 183.646,144.193 184,146.5C 185.194,145.57 186.527,144.903 188,144.5C 189.732,146.207 191.565,146.873 193.5,146.5C 194.795,145.902 196.128,145.402 197.5,145C 196.304,144.346 196.304,143.846 197.5,143.5C 200.653,145.627 203.987,146.127 207.5,145C 205.285,146.044 202.952,146.71 200.5,147C 202.87,148.185 205.203,149.351 207.5,150.5C 208.689,150.244 209.856,149.911 211,149.5C 212.098,150.384 212.598,151.384 212.5,152.5C 213.738,148.689 214.404,148.689 214.5,152.5C 217.449,153.013 220.282,153.013 223,152.5C 223.49,153.793 223.657,155.127 223.5,156.5C 221.508,156.328 219.842,156.995 218.5,158.5C 216.679,157.272 215.679,155.606 215.5,153.5C 214.448,153.351 213.448,153.517 212.5,154C 212.833,154.333 213.167,154.667 213.5,155C 209.174,154.836 204.841,154.336 200.5,153.5 Z"/></g>
<g><path style="opacity:1" fill="#b7babb" d="M -0.5,170.5 C 44.8382,170.167 90.1716,170.5 135.5,171.5C 139.388,172.338 143.055,173.672 146.5,175.5C 147.696,175.154 147.696,174.654 146.5,174C 151.091,174.245 155.758,175.745 160.5,178.5C 164.958,185.216 171.291,188.216 179.5,187.5C 179.833,187.5 180.167,187.5 180.5,187.5C 182.844,187.94 184.844,188.94 186.5,190.5C 185.883,190.611 185.383,190.944 185,191.5C 180.022,189.631 174.855,188.465 169.5,188C 166.067,186.228 162.734,184.395 159.5,182.5C 106.309,183.464 52.976,183.797 -0.5,183.5C -0.5,179.167 -0.5,174.833 -0.5,170.5 Z"/></g>
<g><path style="opacity:1" fill="#da9485" d="M 206.5,158.5 C 207.138,160.573 208.138,162.573 209.5,164.5C 208.187,166.518 208.853,167.685 211.5,168C 210.269,169.183 210.269,170.349 211.5,171.5C 212.996,168.672 215.329,167.006 218.5,166.5C 221.151,168.415 220.817,169.915 217.5,171C 219.92,170.975 222.253,170.309 224.5,169C 220.967,162.407 222.967,159.407 230.5,160C 229.833,161.333 228.833,162.333 227.5,163C 228.308,163.308 228.975,163.808 229.5,164.5C 228.167,165.167 226.833,165.833 225.5,166.5C 227.816,167.496 229.483,169.163 230.5,171.5C 231.167,170.5 231.833,169.5 232.5,168.5C 233.364,170.197 234.697,171.363 236.5,172C 232.468,175.262 229.302,174.428 227,169.5C 225.615,170.551 224.615,171.884 224,173.5C 223.692,172.692 223.192,172.025 222.5,171.5C 223.131,173.478 223.131,175.645 222.5,178C 223.5,178.333 224.5,178.667 225.5,179C 222.968,179.612 222.135,181.112 223,183.5C 225.805,180.347 229.305,178.681 233.5,178.5C 233.19,180.144 232.19,181.144 230.5,181.5C 228.147,182.34 226.147,183.674 224.5,185.5C 221.5,186.833 218.5,188.167 215.5,189.5C 212.203,189.671 211.869,189.005 214.5,187.5C 213.167,187.167 211.833,186.833 210.5,186.5C 208.076,187.021 205.743,187.688 203.5,188.5C 203.798,191.336 203.131,191.836 201.5,190C 202.218,188.013 203.218,186.179 204.5,184.5C 206.224,185.661 207.89,185.495 209.5,184C 206.853,183.685 206.187,182.518 207.5,180.5C 206.167,179.833 204.833,179.167 203.5,178.5C 204.397,178.331 205.397,177.998 206.5,177.5C 204.701,174.96 202.367,172.96 199.5,171.5C 200.641,170.575 200.641,169.741 199.5,169C 202.003,167.451 202.003,165.784 199.5,164C 200.38,162.644 200.714,161.144 200.5,159.5C 201.265,160.66 202.265,161.66 203.5,162.5C 204.711,161.726 204.711,160.893 203.5,160C 204.744,159.544 205.577,160.044 206,161.5C 206.483,160.552 206.649,159.552 206.5,158.5 Z"/></g>
<g><path style="opacity:1" fill="#b9bcbc" d="M 299.5,175.5 C 299.5,178.167 299.5,180.833 299.5,183.5C 280.333,184.137 261.333,183.47 242.5,181.5C 236.883,183.886 231.716,186.886 227,190.5C 224.084,188.98 221.751,189.647 220,192.5C 219.098,192.257 218.265,191.923 217.5,191.5C 219.833,189.5 222.167,187.5 224.5,185.5C 226.784,185.025 228.784,184.025 230.5,182.5C 237.981,180.479 245.147,177.812 252,174.5C 267.809,175.462 283.642,175.796 299.5,175.5 Z"/></g>
<g><path style="opacity:1" fill="#493631" d="M 230.5,181.5 C 230.5,181.833 230.5,182.167 230.5,182.5C 228.784,184.025 226.784,185.025 224.5,185.5C 226.147,183.674 228.147,182.34 230.5,181.5 Z"/></g>
<g><path style="opacity:1" fill="#c7c9c8" d="M 186.5,190.5 C 188.139,192.806 190.139,194.806 192.5,196.5C 192.833,197.167 193.167,197.833 193.5,198.5C 190.412,199.112 188.079,197.779 186.5,194.5C 185.325,195.855 184.325,195.688 183.5,194C 122.168,193.5 60.8342,193.333 -0.5,193.5C -0.5,190.167 -0.5,186.833 -0.5,183.5C 52.976,183.797 106.309,183.464 159.5,182.5C 162.734,184.395 166.067,186.228 169.5,188C 174.855,188.465 180.022,189.631 185,191.5C 185.383,190.944 185.883,190.611 186.5,190.5 Z"/></g>
<g><path style="opacity:1" fill="#c7c9c8" d="M 299.5,183.5 C 299.5,186.833 299.5,190.167 299.5,193.5C 273.772,192.848 248.272,193.515 223,195.5C 222.692,194.692 222.192,194.025 221.5,193.5C 220.904,194.716 220.737,196.049 221,197.5C 219.333,196.833 217.667,196.167 216,195.5C 213.72,197.037 211.22,198.203 208.5,199C 206.937,200.736 205.27,202.236 203.5,203.5C 201.473,203.662 199.473,203.495 197.5,203C 198.833,202.667 200.167,202.333 201.5,202C 199.942,201.79 198.609,201.29 197.5,200.5C 198.873,200.657 200.207,200.49 201.5,200C 206.992,197.311 212.326,194.477 217.5,191.5C 218.265,191.923 219.098,192.257 220,192.5C 221.751,189.647 224.084,188.98 227,190.5C 231.716,186.886 236.883,183.886 242.5,181.5C 261.333,183.47 280.333,184.137 299.5,183.5 Z"/></g>
<g><path style="opacity:1" fill="#8d9293" d="M 180.5,187.5 C 183.941,187.301 187.274,187.801 190.5,189C 191.669,191.007 192.335,193.173 192.5,195.5C 192.5,195.833 192.5,196.167 192.5,196.5C 190.139,194.806 188.139,192.806 186.5,190.5C 184.844,188.94 182.844,187.94 180.5,187.5 Z"/></g>
<g><path style="opacity:1" fill="#422b1f" d="M 224.5,185.5 C 222.167,187.5 219.833,189.5 217.5,191.5C 212.326,194.477 206.992,197.311 201.5,200C 200.207,200.49 198.873,200.657 197.5,200.5C 196.486,199.326 195.153,198.66 193.5,198.5C 193.167,197.833 192.833,197.167 192.5,196.5C 192.5,196.167 192.5,195.833 192.5,195.5C 194.921,195.122 197.254,194.455 199.5,193.5C 201.16,195.248 203.16,195.748 205.5,195C 209.056,193.392 212.389,191.559 215.5,189.5C 218.5,188.167 221.5,186.833 224.5,185.5 Z"/></g>
<g><path style="opacity:1" fill="#d3d5d4" d="M -0.5,193.5 C 60.8342,193.333 122.168,193.5 183.5,194C 184.325,195.688 185.325,195.855 186.5,194.5C 188.079,197.779 190.412,199.112 193.5,198.5C 195.153,198.66 196.486,199.326 197.5,200.5C 195.731,201.421 194.065,202.588 192.5,204C 184.165,204.48 175.832,204.98 167.5,205.5C 111.574,205.157 55.5742,205.157 -0.5,205.5C -0.5,201.5 -0.5,197.5 -0.5,193.5 Z"/></g>
<g><path style="opacity:1" fill="#d3d5d4" d="M 299.5,193.5 C 299.5,197.167 299.5,200.833 299.5,204.5C 274.157,204.334 248.824,204.667 223.5,205.5C 216.77,205.227 210.103,204.56 203.5,203.5C 205.27,202.236 206.937,200.736 208.5,199C 211.22,198.203 213.72,197.037 216,195.5C 217.667,196.167 219.333,196.833 221,197.5C 220.737,196.049 220.904,194.716 221.5,193.5C 222.192,194.025 222.692,194.692 223,195.5C 248.272,193.515 273.772,192.848 299.5,193.5 Z"/></g>
<g><path style="opacity:1" fill="#dedede" d="M 197.5,200.5 C 198.609,201.29 199.942,201.79 201.5,202C 200.167,202.333 198.833,202.667 197.5,203C 199.473,203.495 201.473,203.662 203.5,203.5C 210.103,204.56 216.77,205.227 223.5,205.5C 248.824,204.667 274.157,204.334 299.5,204.5C 299.5,208.833 299.5,213.167 299.5,217.5C 199.5,217.5 99.5,217.5 -0.5,217.5C -0.5,213.5 -0.5,209.5 -0.5,205.5C 55.5742,205.157 111.574,205.157 167.5,205.5C 175.832,204.98 184.165,204.48 192.5,204C 194.065,202.588 195.731,201.421 197.5,200.5 Z"/></g>
</svg>
