<?xml version="1.0" encoding="UTF-8"?>
<!DOCTYPE svg PUBLIC "-//W3C//DTD SVG 1.1//EN" "http://www.w3.org/Graphics/SVG/1.1/DTD/svg11.dtd">
<svg xmlns="http://www.w3.org/2000/svg" version="1.1" width="300px" height="201px" style="shape-rendering:geometricPrecision; text-rendering:geometricPrecision; image-rendering:optimizeQuality; fill-rule:evenodd; clip-rule:evenodd" xmlns:xlink="http://www.w3.org/1999/xlink">
<g><path style="opacity:1" fill="#060000" d="M -0.5,-0.5 C 99.5,-0.5 199.5,-0.5 299.5,-0.5C 299.5,66.5 299.5,133.5 299.5,200.5C 199.5,200.5 99.5,200.5 -0.5,200.5C -0.5,133.5 -0.5,66.5 -0.5,-0.5 Z"/></g>
<g><path style="opacity:1" fill="#e0885a" d="M 256.5,55.5 C 256.649,54.448 256.483,53.448 256,52.5C 253.944,53.5832 252.611,55.2499 252,57.5C 250.605,56.1854 249.605,56.5188 249,58.5C 248.667,58.1667 248.333,57.8333 248,57.5C 247.161,58.6241 245.994,59.2908 244.5,59.5C 241.174,60.0466 237.84,60.5466 234.5,61C 233.922,62.417 232.922,63.2504 231.5,63.5C 230.833,63.1667 230.167,62.8333 229.5,62.5C 229.38,61.4138 228.713,60.7472 227.5,60.5C 224.217,59.673 220.884,59.3396 217.5,59.5C 224.845,58.9314 232.178,57.5981 239.5,55.5C 241.887,53.9082 243.22,51.5749 243.5,48.5C 244.025,47.8076 244.692,47.3076 245.5,47C 244.207,46.51 242.873,46.3433 241.5,46.5C 241.719,47.675 241.386,48.675 240.5,49.5C 233.617,47.2531 226.617,45.2531 219.5,43.5C 206.713,41.727 194.046,40.3937 181.5,39.5C 181.567,40.9587 181.234,42.2921 180.5,43.5C 179.069,43.1193 178.236,42.1193 178,40.5C 177.536,41.0944 177.369,41.7611 177.5,42.5C 177.167,42.5 176.833,42.5 176.5,42.5C 176.649,41.448 176.483,40.448 176,39.5C 173.532,39.7523 171.032,40.0856 168.5,40.5C 164.222,39.5898 159.889,38.9231 155.5,38.5C 140.817,39.8162 126.15,39.8162 111.5,38.5C 108.695,37.6805 105.695,37.1805 102.5,37C 102.833,36.6667 103.167,36.3333 103.5,36C 109.016,35.8267 114.349,35.3267 119.5,34.5C 156.948,33.007 194.281,34.507 231.5,39C 238.768,40.5339 245.768,42.8673 252.5,46C 256.682,48.246 258.015,51.4127 256.5,55.5 Z"/></g>
<g><path style="opacity:1" fill="#c58b63" d="M 119.5,34.5 C 114.349,35.3267 109.016,35.8267 103.5,36C 103.167,36.3333 102.833,36.6667 102.5,37C 105.695,37.1805 108.695,37.6805 111.5,38.5C 108.833,38.5 106.167,38.5 103.5,38.5C 103.5,40.1667 103.5,41.8333 103.5,43.5C 102.833,43.5 102.5,43.8333 102.5,44.5C 101.71,43.3915 101.21,42.0581 101,40.5C 100,43.1667 99,43.1667 98,40.5C 97.1482,41.5707 96.3149,42.5707 95.5,43.5C 95.5,42.1667 95.5,40.8333 95.5,39.5C 96.3764,39.6309 97.0431,39.2975 97.5,38.5C 96.7573,37.8182 96.0906,37.1515 95.5,36.5C 103.257,34.7315 111.257,34.0648 119.5,34.5 Z"/></g>
<g><path style="opacity:1" fill="#d36f42" d="M 111.5,38.5 C 126.15,39.8162 140.817,39.8162 155.5,38.5C 159.889,38.9231 164.222,39.5898 168.5,40.5C 171.032,40.0856 173.532,39.7523 176,39.5C 176.483,40.448 176.649,41.448 176.5,42.5C 176.565,42.9382 176.399,43.2716 176,43.5C 166.732,42.7186 157.399,42.052 148,41.5C 133.176,42.3762 118.343,43.0429 103.5,43.5C 103.5,41.8333 103.5,40.1667 103.5,38.5C 106.167,38.5 108.833,38.5 111.5,38.5 Z"/></g>
<g><path style="opacity:1" fill="#d78356" d="M 95.5,36.5 C 96.0906,37.1515 96.7573,37.8182 97.5,38.5C 97.0431,39.2975 96.3764,39.6309 95.5,39.5C 91.8505,40.7278 88.1838,40.7278 84.5,39.5C 84.5,40.5 84.5,41.5 84.5,42.5C 78.3366,43.2577 72.3366,44.591 66.5,46.5C 66.2053,48.7354 66.5386,50.7354 67.5,52.5C 67.5,53.8333 67.5,55.1667 67.5,56.5C 67.0618,56.4346 66.7284,56.6012 66.5,57C 67.3081,57.3076 67.9747,57.8076 68.5,58.5C 67.2943,60.7938 66.2943,63.1272 65.5,65.5C 65.5,65.8333 65.5,66.1667 65.5,66.5C 62.5394,65.6766 59.5394,65.01 56.5,64.5C 54.1124,63.6515 51.7791,62.6515 49.5,61.5C 50.3629,60.0597 50.3629,58.7264 49.5,57.5C 52.8878,55.4819 56.5545,54.4819 60.5,54.5C 60.67,53.1779 60.3366,52.0113 59.5,51C 61.5,48.3239 63.8334,45.9905 66.5,44C 64.3208,44.284 62.3208,44.1174 60.5,43.5C 71.6802,39.3549 83.3469,37.0215 95.5,36.5 Z"/></g>
<g><path style="opacity:1" fill="#c16035" d="M 95.5,39.5 C 95.5,40.8333 95.5,42.1667 95.5,43.5C 95.0879,45.8867 94.0879,47.8867 92.5,49.5C 90.323,49.4139 88.323,48.7472 86.5,47.5C 85.5,48 84.5,48.5 83.5,49C 78.1771,49.4994 72.8437,49.666 67.5,49.5C 67.5,50.5 67.5,51.5 67.5,52.5C 66.5386,50.7354 66.2053,48.7354 66.5,46.5C 72.3366,44.591 78.3366,43.2577 84.5,42.5C 84.5,41.5 84.5,40.5 84.5,39.5C 88.1838,40.7278 91.8505,40.7278 95.5,39.5 Z"/></g>
<g><path style="opacity:1" fill="#ca673c" d="M 239.5,55.5 C 237.118,54.4691 234.784,53.1357 232.5,51.5C 232.709,50.914 233.043,50.414 233.5,50C 231.782,49.654 230.115,49.154 228.5,48.5C 218.31,48.4196 208.144,48.4196 198,48.5C 194.823,48.0866 192.323,46.5866 190.5,44C 187.183,43.5017 183.85,43.335 180.5,43.5C 181.234,42.2921 181.567,40.9587 181.5,39.5C 194.046,40.3937 206.713,41.727 219.5,43.5C 226.617,45.2531 233.617,47.2531 240.5,49.5C 241.386,48.675 241.719,47.675 241.5,46.5C 242.873,46.3433 244.207,46.51 245.5,47C 244.692,47.3076 244.025,47.8076 243.5,48.5C 243.22,51.5749 241.887,53.9082 239.5,55.5 Z"/></g>
<g><path style="opacity:1" fill="#b45328" d="M 176.5,42.5 C 176.833,42.5 177.167,42.5 177.5,42.5C 177.5,43.1667 177.5,43.8333 177.5,44.5C 177.108,46.1789 176.608,47.8455 176,49.5C 174.33,47.3017 172.33,46.9683 170,48.5C 169.751,47.376 169.251,46.376 168.5,45.5C 166.792,47.6911 164.792,48.0244 162.5,46.5C 161.73,48.2718 160.397,49.2718 158.5,49.5C 154.605,48.9402 150.772,48.2736 147,47.5C 140.333,48.8333 133.667,50.1667 127,51.5C 126.692,50.6919 126.192,50.0253 125.5,49.5C 123.002,52.2537 121.002,51.9204 119.5,48.5C 114.649,47.9777 109.982,46.9777 105.5,45.5C 104.353,45.8178 103.519,46.4844 103,47.5C 102.536,46.9056 102.369,46.2389 102.5,45.5C 102.5,45.1667 102.5,44.8333 102.5,44.5C 102.5,43.8333 102.833,43.5 103.5,43.5C 118.343,43.0429 133.176,42.3762 148,41.5C 157.399,42.052 166.732,42.7186 176,43.5C 176.399,43.2716 176.565,42.9382 176.5,42.5 Z"/></g>
<g><path style="opacity:1" fill="#b8582c" d="M 180.5,43.5 C 183.85,43.335 187.183,43.5017 190.5,44C 192.323,46.5866 194.823,48.0866 198,48.5C 208.144,48.4196 218.31,48.4196 228.5,48.5C 230.115,49.154 231.782,49.654 233.5,50C 233.043,50.414 232.709,50.914 232.5,51.5C 234.784,53.1357 237.118,54.4691 239.5,55.5C 232.178,57.5981 224.845,58.9314 217.5,59.5C 215.585,59.2155 213.919,59.5489 212.5,60.5C 210.833,60.5 209.167,60.5 207.5,60.5C 205.484,59.412 203.317,58.412 201,57.5C 197.895,58.3672 194.728,58.7006 191.5,58.5C 188.67,57.0394 185.836,56.3727 183,56.5C 183.29,53.5865 183.457,50.5865 183.5,47.5C 182.5,47.5 181.5,47.5 180.5,47.5C 180.5,46.1667 180.5,44.8333 180.5,43.5 Z"/></g>
<g><path style="opacity:1" fill="#dbaa80" d="M 60.5,43.5 C 62.3208,44.1174 64.3208,44.284 66.5,44C 63.8334,45.9905 61.5,48.3239 59.5,51C 60.3366,52.0113 60.67,53.1779 60.5,54.5C 56.5545,54.4819 52.8878,55.4819 49.5,57.5C 50.3629,58.7264 50.3629,60.0597 49.5,61.5C 47.9826,61.4894 46.8159,60.8228 46,59.5C 45.0069,49.188 49.8403,43.8546 60.5,43.5 Z"/></g>
<g><path style="opacity:1" fill="#92441d" d="M 92.5,49.5 C 93.1667,52.8333 93.8333,56.1667 94.5,59.5C 98.1716,60.0447 97.8383,60.3781 93.5,60.5C 84.6863,60.0702 76.0196,58.7369 67.5,56.5C 67.5,55.1667 67.5,53.8333 67.5,52.5C 67.5,51.5 67.5,50.5 67.5,49.5C 72.8437,49.666 78.1771,49.4994 83.5,49C 84.5,48.5 85.5,48 86.5,47.5C 88.323,48.7472 90.323,49.4139 92.5,49.5 Z"/></g>
<g><path style="opacity:1" fill="#87421f" d="M 99.5,49.5 C 101.28,50.7547 103.113,50.7547 105,49.5C 106.531,50.2173 107.864,51.2173 109,52.5C 110.285,52.0496 111.452,51.3829 112.5,50.5C 113.167,51.5 113.833,52.5 114.5,53.5C 117.839,51.7652 120.506,52.4318 122.5,55.5C 125.572,55.1298 128.239,53.9632 130.5,52C 137.129,51.9597 143.629,51.1264 150,49.5C 153.441,50.3822 156.941,50.7155 160.5,50.5C 159.685,55.4287 156.685,57.762 151.5,57.5C 151.5,56.5 151.5,55.5 151.5,54.5C 148.518,54.8273 145.685,54.8273 143,54.5C 141.812,55.5634 141.312,56.8967 141.5,58.5C 137.5,58.8333 133.5,59.1667 129.5,59.5C 122.109,59.2012 114.776,59.5345 107.5,60.5C 105.149,58.7711 102.482,58.1044 99.5,58.5C 98.9241,55.393 98.9241,52.393 99.5,49.5 Z"/></g>
<g><path style="opacity:1" fill="#9c4c26" d="M 177.5,44.5 C 178.32,48.2882 178.654,52.1215 178.5,56C 176.833,57.6667 175.167,59.3333 173.5,61C 159.504,61.4999 145.504,61.6666 131.5,61.5C 130.833,61.5 130.167,61.5 129.5,61.5C 129.5,60.8333 129.5,60.1667 129.5,59.5C 133.5,59.1667 137.5,58.8333 141.5,58.5C 141.312,56.8967 141.812,55.5634 143,54.5C 145.685,54.8273 148.518,54.8273 151.5,54.5C 151.5,55.5 151.5,56.5 151.5,57.5C 156.685,57.762 159.685,55.4287 160.5,50.5C 156.941,50.7155 153.441,50.3822 150,49.5C 143.629,51.1264 137.129,51.9597 130.5,52C 128.239,53.9632 125.572,55.1298 122.5,55.5C 120.506,52.4318 117.839,51.7652 114.5,53.5C 113.833,52.5 113.167,51.5 112.5,50.5C 111.452,51.3829 110.285,52.0496 109,52.5C 107.864,51.2173 106.531,50.2173 105,49.5C 103.113,50.7547 101.28,50.7547 99.5,49.5C 100.512,48.1283 101.512,46.795 102.5,45.5C 102.369,46.2389 102.536,46.9056 103,47.5C 103.519,46.4844 104.353,45.8178 105.5,45.5C 109.982,46.9777 114.649,47.9777 119.5,48.5C 121.002,51.9204 123.002,52.2537 125.5,49.5C 126.192,50.0253 126.692,50.6919 127,51.5C 133.667,50.1667 140.333,48.8333 147,47.5C 150.772,48.2736 154.605,48.9402 158.5,49.5C 160.397,49.2718 161.73,48.2718 162.5,46.5C 164.792,48.0244 166.792,47.6911 168.5,45.5C 169.251,46.376 169.751,47.376 170,48.5C 172.33,46.9683 174.33,47.3017 176,49.5C 176.608,47.8455 177.108,46.1789 177.5,44.5 Z"/></g>
<g><path style="opacity:1" fill="#c2784d" d="M 180.5,43.5 C 180.5,44.8333 180.5,46.1667 180.5,47.5C 181.5,47.5 182.5,47.5 183.5,47.5C 183.457,50.5865 183.29,53.5865 183,56.5C 185.836,56.3727 188.67,57.0394 191.5,58.5C 191.5,59.5 191.5,60.5 191.5,61.5C 171.5,62.8333 151.5,62.8333 131.5,61.5C 145.504,61.6666 159.504,61.4999 173.5,61C 175.167,59.3333 176.833,57.6667 178.5,56C 178.654,52.1215 178.32,48.2882 177.5,44.5C 177.5,43.8333 177.5,43.1667 177.5,42.5C 177.369,41.7611 177.536,41.0944 178,40.5C 178.236,42.1193 179.069,43.1193 180.5,43.5 Z"/></g>
<g><path style="opacity:1" fill="#b67249" d="M 102.5,44.5 C 102.5,44.8333 102.5,45.1667 102.5,45.5C 101.512,46.795 100.512,48.1283 99.5,49.5C 98.9241,52.393 98.9241,55.393 99.5,58.5C 102.482,58.1044 105.149,58.7711 107.5,60.5C 114.776,59.5345 122.109,59.2012 129.5,59.5C 129.5,60.1667 129.5,60.8333 129.5,61.5C 118.833,61.5 108.167,61.5 97.5,61.5C 95.901,61.7678 94.5676,61.4345 93.5,60.5C 97.8383,60.3781 98.1716,60.0447 94.5,59.5C 93.8333,56.1667 93.1667,52.8333 92.5,49.5C 94.0879,47.8867 95.0879,45.8867 95.5,43.5C 96.3149,42.5707 97.1482,41.5707 98,40.5C 99,43.1667 100,43.1667 101,40.5C 101.21,42.0581 101.71,43.3915 102.5,44.5 Z"/></g>
<g><path style="opacity:1" fill="#904822" d="M 207.5,60.5 C 202.228,61.4002 196.895,61.7335 191.5,61.5C 191.5,60.5 191.5,59.5 191.5,58.5C 194.728,58.7006 197.895,58.3672 201,57.5C 203.317,58.412 205.484,59.412 207.5,60.5 Z"/></g>
<g><path style="opacity:1" fill="#f6c394" d="M 67.5,56.5 C 76.0196,58.7369 84.6863,60.0702 93.5,60.5C 94.5676,61.4345 95.901,61.7678 97.5,61.5C 96.8333,62.5 96.1667,63.5 95.5,64.5C 95.5,65.1667 95.1667,65.5 94.5,65.5C 87.2243,65.8708 80.0576,65.2042 73,63.5C 72.0497,64.0223 71.2164,64.689 70.5,65.5C 68.7555,62.9084 67.0888,62.9084 65.5,65.5C 66.2943,63.1272 67.2943,60.7938 68.5,58.5C 67.9747,57.8076 67.3081,57.3076 66.5,57C 66.7284,56.6012 67.0618,56.4346 67.5,56.5 Z"/></g>
<g><path style="opacity:1" fill="#f7c49a" d="M 217.5,59.5 C 220.884,59.3396 224.217,59.673 227.5,60.5C 228.713,60.7472 229.38,61.4138 229.5,62.5C 228.105,64.3794 226.105,65.3794 223.5,65.5C 223.389,64.8826 223.056,64.3826 222.5,64C 219.447,63.8214 216.447,63.3214 213.5,62.5C 213.137,61.8165 212.804,61.1499 212.5,60.5C 213.919,59.5489 215.585,59.2155 217.5,59.5 Z"/></g>
<g><path style="opacity:1" fill="#d27646" d="M 256.5,55.5 C 255.974,57.2303 254.974,58.5637 253.5,59.5C 251.801,59.3398 250.134,59.5065 248.5,60C 246.141,61.2425 244.141,62.7425 242.5,64.5C 238.967,65.9581 235.301,66.9581 231.5,67.5C 231.5,66.1667 231.5,64.8333 231.5,63.5C 232.922,63.2504 233.922,62.417 234.5,61C 237.84,60.5466 241.174,60.0466 244.5,59.5C 245.994,59.2908 247.161,58.6241 248,57.5C 248.333,57.8333 248.667,58.1667 249,58.5C 249.605,56.5188 250.605,56.1854 252,57.5C 252.611,55.2499 253.944,53.5832 256,52.5C 256.483,53.448 256.649,54.448 256.5,55.5 Z"/></g>
<g><path style="opacity:1" fill="#fbac75" d="M 207.5,60.5 C 209.167,60.5 210.833,60.5 212.5,60.5C 212.804,61.1499 213.137,61.8165 213.5,62.5C 216.447,63.3214 219.447,63.8214 222.5,64C 223.056,64.3826 223.389,64.8826 223.5,65.5C 223.5,66.1667 223.5,66.8333 223.5,67.5C 221.834,65.1716 219.501,64.1716 216.5,64.5C 208.518,66.3343 200.518,67.001 192.5,66.5C 192.5,65.5 192.5,64.5 192.5,63.5C 189.833,64.5 187.167,65.5 184.5,66.5C 184.5,65.5 184.5,64.5 184.5,63.5C 181.281,63.1575 179.114,63.8241 178,65.5C 176.893,65.4148 175.893,65.0814 175,64.5C 168.569,65.3195 162.069,65.9862 155.5,66.5C 145.163,65.1941 134.83,65.1941 124.5,66.5C 120.136,66.0303 115.802,65.3636 111.5,64.5C 112.894,63.3131 112.727,62.6465 111,62.5C 109.174,63.0104 109.007,63.8438 110.5,65C 107.621,65.8736 104.955,65.5403 102.5,64C 104.5,63.6667 106.5,63.3333 108.5,63C 103.909,62.0577 99.5755,62.5577 95.5,64.5C 96.1667,63.5 96.8333,62.5 97.5,61.5C 108.167,61.5 118.833,61.5 129.5,61.5C 130.167,61.5 130.833,61.5 131.5,61.5C 151.5,62.8333 171.5,62.8333 191.5,61.5C 196.895,61.7335 202.228,61.4002 207.5,60.5 Z"/></g>
<g><path style="opacity:1" fill="#f99d63" d="M 223.5,67.5 C 223.5,67.8333 223.5,68.1667 223.5,68.5C 220.946,69.388 218.279,69.7214 215.5,69.5C 215.918,68.7784 216.584,68.2784 217.5,68C 187.807,68.09 158.14,68.59 128.5,69.5C 127.5,69 126.5,68.5 125.5,68C 115.141,67.7338 104.808,67.2338 94.5,66.5C 94.5,66.1667 94.5,65.8333 94.5,65.5C 95.1667,65.5 95.5,65.1667 95.5,64.5C 99.5755,62.5577 103.909,62.0577 108.5,63C 106.5,63.3333 104.5,63.6667 102.5,64C 104.955,65.5403 107.621,65.8736 110.5,65C 109.007,63.8438 109.174,63.0104 111,62.5C 112.727,62.6465 112.894,63.3131 111.5,64.5C 115.802,65.3636 120.136,66.0303 124.5,66.5C 134.83,65.1941 145.163,65.1941 155.5,66.5C 162.069,65.9862 168.569,65.3195 175,64.5C 175.893,65.0814 176.893,65.4148 178,65.5C 179.114,63.8241 181.281,63.1575 184.5,63.5C 184.5,64.5 184.5,65.5 184.5,66.5C 187.167,65.5 189.833,64.5 192.5,63.5C 192.5,64.5 192.5,65.5 192.5,66.5C 200.518,67.001 208.518,66.3343 216.5,64.5C 219.501,64.1716 221.834,65.1716 223.5,67.5 Z"/></g>
<g><path style="opacity:1" fill="#d1996c" d="M 229.5,62.5 C 230.167,62.8333 230.833,63.1667 231.5,63.5C 231.5,64.8333 231.5,66.1667 231.5,67.5C 228.904,68.2653 226.237,68.5987 223.5,68.5C 223.5,68.1667 223.5,67.8333 223.5,67.5C 223.5,66.8333 223.5,66.1667 223.5,65.5C 226.105,65.3794 228.105,64.3794 229.5,62.5 Z"/></g>
<g><path style="opacity:1" fill="#d99e68" d="M 94.5,65.5 C 94.5,65.8333 94.5,66.1667 94.5,66.5C 93.1736,68.1951 93.5069,69.5284 95.5,70.5C 85.3147,70.4058 75.3147,69.0724 65.5,66.5C 65.5,66.1667 65.5,65.8333 65.5,65.5C 67.0888,62.9084 68.7555,62.9084 70.5,65.5C 71.2164,64.689 72.0497,64.0223 73,63.5C 80.0576,65.2042 87.2243,65.8708 94.5,65.5 Z"/></g>
<g><path style="opacity:1" fill="#7d3d15" d="M 56.5,64.5 C 59.5394,65.01 62.5394,65.6766 65.5,66.5C 75.3147,69.0724 85.3147,70.4058 95.5,70.5C 95.5,70.8333 95.5,71.1667 95.5,71.5C 93.8008,71.3398 92.1341,71.5065 90.5,72C 91.0442,72.7172 91.7109,73.2172 92.5,73.5C 92.5,74.1667 92.5,74.8333 92.5,75.5C 92.4431,76.609 92.1098,77.609 91.5,78.5C 91.5,80.1667 91.5,81.8333 91.5,83.5C 90.7515,82.469 90.0848,81.3024 89.5,80C 91.1708,75.8977 90.5041,75.0643 87.5,77.5C 87.6766,75.0194 86.6766,73.1861 84.5,72C 80.1371,71.6306 75.8038,71.1306 71.5,70.5C 67.8084,71.0288 64.6417,70.0288 62,67.5C 61.6924,68.3081 61.1924,68.9747 60.5,69.5C 59.6667,68.5 58.8333,67.5 58,66.5C 57.7216,67.4158 57.2216,68.0825 56.5,68.5C 56.5,67.1667 56.5,65.8333 56.5,64.5 Z"/></g>
<g><path style="opacity:1" fill="#e37e46" d="M 94.5,66.5 C 104.808,67.2338 115.141,67.7338 125.5,68C 126.5,68.5 127.5,69 128.5,69.5C 158.14,68.59 187.807,68.09 217.5,68C 216.584,68.2784 215.918,68.7784 215.5,69.5C 213.031,70.3171 210.365,70.8171 207.5,71C 191.328,71.1686 175.328,71.6686 159.5,72.5C 138.167,72.1667 116.833,71.8333 95.5,71.5C 95.5,71.1667 95.5,70.8333 95.5,70.5C 93.5069,69.5284 93.1736,68.1951 94.5,66.5 Z"/></g>
<g><path style="opacity:1" fill="#671402" d="M 95.5,71.5 C 116.833,71.8333 138.167,72.1667 159.5,72.5C 171.171,72.3335 182.838,72.5001 194.5,73C 160.502,73.5 126.502,73.6667 92.5,73.5C 91.7109,73.2172 91.0442,72.7172 90.5,72C 92.1341,71.5065 93.8008,71.3398 95.5,71.5 Z"/></g>
<g><path style="opacity:1" fill="#7e2e0a" d="M 207.5,73.5 C 203.462,73.9578 199.462,74.6245 195.5,75.5C 161.173,76.3538 126.839,76.3538 92.5,75.5C 92.5,74.8333 92.5,74.1667 92.5,73.5C 126.502,73.6667 160.502,73.5 194.5,73C 182.838,72.5001 171.171,72.3335 159.5,72.5C 175.328,71.6686 191.328,71.1686 207.5,71C 210.365,70.8171 213.031,70.3171 215.5,69.5C 218.279,69.7214 220.946,69.388 223.5,68.5C 226.237,68.5987 228.904,68.2653 231.5,67.5C 235.301,66.9581 238.967,65.9581 242.5,64.5C 244.331,63.9478 245.997,63.9478 247.5,64.5C 245.547,65.7607 243.547,66.9274 241.5,68C 233.474,69.1699 225.474,70.5033 217.5,72C 216.874,72.7504 216.374,73.5838 216,74.5C 213.281,73.5562 210.448,73.2229 207.5,73.5 Z"/></g>
<g><path style="opacity:1" fill="#98461f" d="M 253.5,59.5 C 252.548,60.452 251.548,61.452 250.5,62.5C 249.67,68.1376 249.17,73.8042 249,79.5C 247.206,82.1063 245.706,84.773 244.5,87.5C 244.631,86.7611 244.464,86.0944 244,85.5C 242.732,85.6158 241.398,85.9491 240,86.5C 239.283,85.9558 238.783,85.2891 238.5,84.5C 238.34,82.8008 238.506,81.1341 239,79.5C 240.189,84.3597 242.356,85.5263 245.5,83C 244.77,79.2062 244.27,75.3728 244,71.5C 243.586,71.0426 243.086,70.7093 242.5,70.5C 237.382,72.4028 232.215,74.0694 227,75.5C 223.989,73.9996 224.489,73.1663 228.5,73C 224.818,72.7776 221.152,73.111 217.5,74C 219.5,74.3333 221.5,74.6667 223.5,75C 218.068,77.2047 212.402,78.038 206.5,77.5C 207.234,76.2921 207.567,74.9587 207.5,73.5C 210.448,73.2229 213.281,73.5562 216,74.5C 216.374,73.5838 216.874,72.7504 217.5,72C 225.474,70.5033 233.474,69.1699 241.5,68C 243.547,66.9274 245.547,65.7607 247.5,64.5C 245.997,63.9478 244.331,63.9478 242.5,64.5C 244.141,62.7425 246.141,61.2425 248.5,60C 250.134,59.5065 251.801,59.3398 253.5,59.5 Z"/></g>
<g><path style="opacity:1" fill="#c36c3e" d="M 66.5,74.5 C 72.2392,75.7782 77.9059,77.6115 83.5,80C 82.1437,82.3976 80.9771,84.8976 80,87.5C 78.9887,88.3366 77.8221,88.67 76.5,88.5C 76.6567,89.8734 76.49,91.2068 76,92.5C 74.8904,90.9632 73.3904,90.2965 71.5,90.5C 71.3505,89.448 71.5172,88.448 72,87.5C 72.8928,88.7112 73.7261,88.7112 74.5,87.5C 73.3112,86.5713 71.9778,86.238 70.5,86.5C 70.6567,85.1266 70.49,83.7932 70,82.5C 69.2411,84.0629 68.0744,85.0629 66.5,85.5C 64.1163,84.5749 63.1163,82.7415 63.5,80C 63.1163,77.2585 64.1163,75.4251 66.5,74.5 Z"/></g>
<g><path style="opacity:1" fill="#a46338" d="M 207.5,73.5 C 207.567,74.9587 207.234,76.2921 206.5,77.5C 205.263,78.9649 204.263,80.6316 203.5,82.5C 202.833,82.5 202.167,82.5 201.5,82.5C 201.953,81.5416 202.619,80.7083 203.5,80C 200.518,79.502 197.518,79.3354 194.5,79.5C 194.833,78.1667 195.167,76.8333 195.5,75.5C 199.462,74.6245 203.462,73.9578 207.5,73.5 Z"/></g>
<g><path style="opacity:1" fill="#a24818" d="M 92.5,75.5 C 126.839,76.3538 161.173,76.3538 195.5,75.5C 195.167,76.8333 194.833,78.1667 194.5,79.5C 193.209,79.2627 192.209,79.596 191.5,80.5C 173.84,81.3782 156.173,81.5449 138.5,81C 137.672,80.0853 136.672,79.4186 135.5,79C 130.198,78.1705 124.864,77.6705 119.5,77.5C 116.41,77.5217 113.743,78.1883 111.5,79.5C 104.814,79.4728 98.1477,79.1395 91.5,78.5C 92.1098,77.609 92.4431,76.609 92.5,75.5 Z"/></g>
<g><path style="opacity:1" fill="#b15426" d="M 191.5,80.5 C 191.5,80.8333 191.5,81.1667 191.5,81.5C 180.867,82.6621 170.2,83.4955 159.5,84C 164.489,84.4993 169.489,84.6659 174.5,84.5C 174.378,88.8383 174.045,89.1716 173.5,85.5C 171.408,85.5614 169.908,86.5614 169,88.5C 168.383,87.5509 168.549,86.7175 169.5,86C 167.833,85.8333 166.167,85.6667 164.5,85.5C 162.359,85.6132 160.525,86.2799 159,87.5C 158,84.8333 157,84.8333 156,87.5C 155.692,86.6919 155.192,86.0253 154.5,85.5C 153.816,88.6163 152.816,91.6163 151.5,94.5C 153.421,95.641 155.421,95.8077 157.5,95C 155.604,93.1917 155.104,91.025 156,88.5C 156.653,91.1392 157.82,93.4726 159.5,95.5C 158.226,96.1894 158.226,97.0228 159.5,98C 162.624,100.126 165.624,99.9594 168.5,97.5C 169.107,97.6236 169.44,97.9569 169.5,98.5C 166.98,99.9182 164.313,100.918 161.5,101.5C 157.167,101.5 152.833,101.5 148.5,101.5C 148.5,100.167 148.5,98.8333 148.5,97.5C 149.506,96.6043 149.506,95.9377 148.5,95.5C 151.481,92.8652 152.814,89.5318 152.5,85.5C 150.133,86.1637 148.133,87.497 146.5,89.5C 145.707,88.6446 146.04,87.8113 147.5,87C 145.831,84.9153 143.664,83.7486 141,83.5C 138.176,84.0539 135.343,84.5539 132.5,85C 133.784,86.2975 133.617,87.4642 132,88.5C 131.691,87.2341 131.191,86.0674 130.5,85C 126.814,84.4412 123.147,83.7745 119.5,83C 124.167,82.6667 128.833,82.3333 133.5,82C 126.184,80.9461 118.851,80.1128 111.5,79.5C 113.743,78.1883 116.41,77.5217 119.5,77.5C 124.864,77.6705 130.198,78.1705 135.5,79C 136.672,79.4186 137.672,80.0853 138.5,81C 156.173,81.5449 173.84,81.3782 191.5,80.5 Z"/></g>
<g><path style="opacity:1" fill="#b85e31" d="M 91.5,78.5 C 98.1477,79.1395 104.814,79.4728 111.5,79.5C 118.851,80.1128 126.184,80.9461 133.5,82C 128.833,82.3333 124.167,82.6667 119.5,83C 123.147,83.7745 126.814,84.4412 130.5,85C 131.191,86.0674 131.691,87.2341 132,88.5C 133.617,87.4642 133.784,86.2975 132.5,85C 135.343,84.5539 138.176,84.0539 141,83.5C 143.664,83.7486 145.831,84.9153 147.5,87C 146.04,87.8113 145.707,88.6446 146.5,89.5C 148.133,87.497 150.133,86.1637 152.5,85.5C 152.814,89.5318 151.481,92.8652 148.5,95.5C 146.733,96.2565 144.9,96.9231 143,97.5C 140.232,95.3487 137.232,95.0154 134,96.5C 131.106,95.6682 130.106,94.0015 131,91.5C 126.459,96.7796 121.959,96.7796 117.5,91.5C 114.218,94.1276 112.385,93.1276 112,88.5C 110.062,91.1059 107.562,92.9392 104.5,94C 106.112,94.7203 107.612,94.5536 109,93.5C 109.464,94.0944 109.631,94.7611 109.5,95.5C 106.5,95.5 103.5,95.5 100.5,95.5C 100.5,97.1667 100.5,98.8333 100.5,100.5C 98.5,100.5 96.5,100.5 94.5,100.5C 94.687,102.564 95.187,104.564 96,106.5C 96.8388,105.376 98.0055,104.709 99.5,104.5C 103.091,106.57 107.091,107.737 111.5,108C 108.674,111.025 105.674,111.192 102.5,108.5C 101.738,109.628 101.071,110.795 100.5,112C 102.833,112.667 105.167,112.667 107.5,112C 112.788,109.474 118.121,107.974 123.5,107.5C 125.858,107.753 128.192,108.086 130.5,108.5C 130.33,109.822 130.663,110.989 131.5,112C 130.833,112.167 130.167,112.333 129.5,112.5C 124.621,110.228 119.621,110.061 114.5,112C 113.639,114.321 114.639,115.487 117.5,115.5C 116.726,116.147 115.726,116.48 114.5,116.5C 109.179,115.668 103.846,115.002 98.5,114.5C 97.0813,113.549 95.4147,113.216 93.5,113.5C 93.6658,108.821 93.4992,104.155 93,99.5C 92.8008,97.5975 91.9675,96.0975 90.5,95C 92.8776,94.0255 92.5443,93.3589 89.5,93C 90.0563,90.7635 91.0563,88.7635 92.5,87C 91.6634,85.9887 91.33,84.8221 91.5,83.5C 91.5,81.8333 91.5,80.1667 91.5,78.5 Z"/></g>
<g><path style="opacity:1" fill="#c28558" d="M 194.5,79.5 C 197.518,79.3354 200.518,79.502 203.5,80C 202.619,80.7083 201.953,81.5416 201.5,82.5C 199.466,83.5907 198.132,85.2574 197.5,87.5C 197.631,86.6236 197.298,85.9569 196.5,85.5C 195.5,86 194.5,86.5 193.5,87C 191.393,89.2267 189.06,91.2267 186.5,93C 187.416,93.2784 188.082,93.7784 188.5,94.5C 185.238,96.0775 182.572,95.4108 180.5,92.5C 180.818,88.8486 182.818,86.8486 186.5,86.5C 187.612,85.7348 188.279,84.7348 188.5,83.5C 190.027,83.573 191.027,82.9063 191.5,81.5C 191.5,81.1667 191.5,80.8333 191.5,80.5C 192.209,79.596 193.209,79.2627 194.5,79.5 Z"/></g>
<g><path style="opacity:1" fill="#c76337" d="M 188.5,83.5 C 188.279,84.7348 187.612,85.7348 186.5,86.5C 182.818,86.8486 180.818,88.8486 180.5,92.5C 178.433,90.6823 177.1,88.349 176.5,85.5C 180.393,84.1846 184.393,83.5179 188.5,83.5 Z"/></g>
<g><path style="opacity:1" fill="#ab5225" d="M 238.5,84.5 C 237.681,81.6946 237.181,78.6946 237,75.5C 234.48,76.2066 231.98,77.04 229.5,78C 231.176,79.1769 232.509,80.6769 233.5,82.5C 232.833,82.8333 232.167,83.1667 231.5,83.5C 232.711,84.7202 232.711,85.8869 231.5,87C 233.559,88.1855 233.726,89.3521 232,90.5C 228.275,88.3215 226.609,84.9881 227,80.5C 225.853,81.4581 224.853,81.1247 224,79.5C 221.973,79.9863 219.807,79.9863 217.5,79.5C 217.966,81.2012 217.966,82.7012 217.5,84C 216.167,83.3333 214.833,82.6667 213.5,82C 214.456,84.8771 215.789,87.5438 217.5,90C 219.527,90.4978 221.527,90.3311 223.5,89.5C 225.902,91.049 228.568,91.7157 231.5,91.5C 230.58,93.8809 230.58,96.2143 231.5,98.5C 230.675,99.3857 229.675,99.719 228.5,99.5C 228.5,100.833 228.5,102.167 228.5,103.5C 227.5,103.5 226.5,103.5 225.5,103.5C 225.649,104.552 225.483,105.552 225,106.5C 219.774,106.85 214.608,106.35 209.5,105C 211.577,104.808 213.577,104.308 215.5,103.5C 217.276,100.168 219.276,97.1683 221.5,94.5C 214.698,95.1372 208.031,95.3039 201.5,95C 197.802,93.4323 196.468,90.9323 197.5,87.5C 198.132,85.2574 199.466,83.5907 201.5,82.5C 201.329,84.9928 202.329,86.8261 204.5,88C 203.692,88.3076 203.025,88.8076 202.5,89.5C 203.5,90.3333 204.5,91.1667 205.5,92C 203.536,92.624 201.869,92.124 200.5,90.5C 199.289,91.2739 199.289,92.1072 200.5,93C 204.067,94.0754 207.067,93.242 209.5,90.5C 211.071,91.3094 212.738,91.6427 214.5,91.5C 214.643,89.7376 214.309,88.0709 213.5,86.5C 211.321,86.009 209.321,86.009 207.5,86.5C 208.246,85.2638 208.579,83.9305 208.5,82.5C 206.833,82.5 205.167,82.5 203.5,82.5C 204.263,80.6316 205.263,78.9649 206.5,77.5C 212.402,78.038 218.068,77.2047 223.5,75C 221.5,74.6667 219.5,74.3333 217.5,74C 221.152,73.111 224.818,72.7776 228.5,73C 224.489,73.1663 223.989,73.9996 227,75.5C 232.215,74.0694 237.382,72.4028 242.5,70.5C 243.086,70.7093 243.586,71.0426 244,71.5C 244.27,75.3728 244.77,79.2062 245.5,83C 242.356,85.5263 240.189,84.3597 239,79.5C 238.506,81.1341 238.34,82.8008 238.5,84.5 Z"/></g>
<g><path style="opacity:1" fill="#d16b3b" d="M 201.5,82.5 C 202.167,82.5 202.833,82.5 203.5,82.5C 205.167,82.5 206.833,82.5 208.5,82.5C 208.579,83.9305 208.246,85.2638 207.5,86.5C 209.321,86.009 211.321,86.009 213.5,86.5C 214.309,88.0709 214.643,89.7376 214.5,91.5C 212.738,91.6427 211.071,91.3094 209.5,90.5C 207.067,93.242 204.067,94.0754 200.5,93C 199.289,92.1072 199.289,91.2739 200.5,90.5C 201.869,92.124 203.536,92.624 205.5,92C 204.5,91.1667 203.5,90.3333 202.5,89.5C 203.025,88.8076 203.692,88.3076 204.5,88C 202.329,86.8261 201.329,84.9928 201.5,82.5 Z"/></g>
<g><path style="opacity:1" fill="#c46839" d="M 174.5,84.5 C 175.003,88.0611 176.336,91.3945 178.5,94.5C 177.812,95.8549 176.812,96.8549 175.5,97.5C 173.871,96.3747 172.371,95.0414 171,93.5C 167.482,97.5105 163.649,98.1772 159.5,95.5C 157.82,93.4726 156.653,91.1392 156,88.5C 155.104,91.025 155.604,93.1917 157.5,95C 155.421,95.8077 153.421,95.641 151.5,94.5C 152.816,91.6163 153.816,88.6163 154.5,85.5C 155.192,86.0253 155.692,86.6919 156,87.5C 157,84.8333 158,84.8333 159,87.5C 160.525,86.2799 162.359,85.6132 164.5,85.5C 166.167,85.6667 167.833,85.8333 169.5,86C 168.549,86.7175 168.383,87.5509 169,88.5C 169.908,86.5614 171.408,85.5614 173.5,85.5C 174.045,89.1716 174.378,88.8383 174.5,84.5 Z"/></g>
<g><path style="opacity:1" fill="#b05b30" d="M 71.5,70.5 C 75.8038,71.1306 80.1371,71.6306 84.5,72C 86.6766,73.1861 87.6766,75.0194 87.5,77.5C 87.4094,83.5785 87.0761,89.4119 86.5,95C 87.2317,98.8599 88.5651,102.527 90.5,106C 90.1667,106.833 89.8333,107.667 89.5,108.5C 84.8151,103.974 79.8151,99.8077 74.5,96C 73.6634,94.9887 73.33,93.8221 73.5,92.5C 72.5,92.5 71.5,92.5 70.5,92.5C 70.762,91.0222 70.4287,89.6888 69.5,88.5C 67.7869,88.1207 66.7869,87.1207 66.5,85.5C 68.0744,85.0629 69.2411,84.0629 70,82.5C 70.49,83.7932 70.6567,85.1266 70.5,86.5C 71.9778,86.238 73.3112,86.5713 74.5,87.5C 73.7261,88.7112 72.8928,88.7112 72,87.5C 71.5172,88.448 71.3505,89.448 71.5,90.5C 73.3904,90.2965 74.8904,90.9632 76,92.5C 76.49,91.2068 76.6567,89.8734 76.5,88.5C 77.8221,88.67 78.9887,88.3366 80,87.5C 80.9771,84.8976 82.1437,82.3976 83.5,80C 77.9059,77.6115 72.2392,75.7782 66.5,74.5C 69.5465,74.8174 71.2132,73.4841 71.5,70.5 Z"/></g>
<g><path style="opacity:1" fill="#8f3f15" d="M 148.5,95.5 C 149.506,95.9377 149.506,96.6043 148.5,97.5C 145.911,99.1573 143.244,99.4906 140.5,98.5C 136.169,99.1539 132.335,98.1539 129,95.5C 127.216,96.3091 125.383,96.9757 123.5,97.5C 118.97,95.4243 114.304,94.7576 109.5,95.5C 109.631,94.7611 109.464,94.0944 109,93.5C 107.612,94.5536 106.112,94.7203 104.5,94C 107.562,92.9392 110.062,91.1059 112,88.5C 112.385,93.1276 114.218,94.1276 117.5,91.5C 121.959,96.7796 126.459,96.7796 131,91.5C 130.106,94.0015 131.106,95.6682 134,96.5C 137.232,95.0154 140.232,95.3487 143,97.5C 144.9,96.9231 146.733,96.2565 148.5,95.5 Z"/></g>
<g><path style="opacity:1" fill="#7d3e16" d="M 175.5,97.5 C 175.5,97.8333 175.5,98.1667 175.5,98.5C 173.389,97.6201 171.389,97.6201 169.5,98.5C 169.44,97.9569 169.107,97.6236 168.5,97.5C 165.624,99.9594 162.624,100.126 159.5,98C 158.226,97.0228 158.226,96.1894 159.5,95.5C 163.649,98.1772 167.482,97.5105 171,93.5C 172.371,95.0414 173.871,96.3747 175.5,97.5 Z"/></g>
<g><path style="opacity:1" fill="#a8572b" d="M 191.5,81.5 C 191.027,82.9063 190.027,83.573 188.5,83.5C 184.393,83.5179 180.393,84.1846 176.5,85.5C 177.1,88.349 178.433,90.6823 180.5,92.5C 182.572,95.4108 185.238,96.0775 188.5,94.5C 190.129,93.3747 191.629,92.0414 193,90.5C 193.492,91.549 193.326,92.549 192.5,93.5C 193.729,94.2811 195.062,94.7811 196.5,95C 194.833,95.3333 193.167,95.6667 191.5,96C 193.002,96.5831 194.335,97.4164 195.5,98.5C 194.359,99.4255 194.359,100.259 195.5,101C 191.8,101.361 188.467,102.527 185.5,104.5C 185.5,103.5 185.5,102.5 185.5,101.5C 182.261,101.413 179.261,102.08 176.5,103.5C 177.389,101.264 178.722,99.264 180.5,97.5C 180.167,97.1667 179.833,96.8333 179.5,96.5C 178.713,97.2421 178.047,98.0754 177.5,99C 176.563,99.6917 175.897,99.525 175.5,98.5C 175.5,98.1667 175.5,97.8333 175.5,97.5C 176.812,96.8549 177.812,95.8549 178.5,94.5C 176.336,91.3945 175.003,88.0611 174.5,84.5C 169.489,84.6659 164.489,84.4993 159.5,84C 170.2,83.4955 180.867,82.6621 191.5,81.5 Z"/></g>
<g><path style="opacity:1" fill="#bf6130" d="M 238.5,84.5 C 238.783,85.2891 239.283,85.9558 240,86.5C 241.398,85.9491 242.732,85.6158 244,85.5C 244.464,86.0944 244.631,86.7611 244.5,87.5C 244.737,88.791 244.404,89.791 243.5,90.5C 240.041,96.4539 235.708,101.621 230.5,106C 224.905,108.989 219.071,109.822 213,108.5C 210.698,108.6 208.698,109.267 207,110.5C 205.769,109.892 204.436,109.559 203,109.5C 198.65,111.023 194.15,111.69 189.5,111.5C 185.547,111.464 181.714,112.131 178,113.5C 177.167,113.167 176.333,112.833 175.5,112.5C 175.918,109.37 176.251,106.37 176.5,103.5C 179.261,102.08 182.261,101.413 185.5,101.5C 185.5,102.5 185.5,103.5 185.5,104.5C 188.467,102.527 191.8,101.361 195.5,101C 194.359,100.259 194.359,99.4255 195.5,98.5C 194.335,97.4164 193.002,96.5831 191.5,96C 193.167,95.6667 194.833,95.3333 196.5,95C 195.062,94.7811 193.729,94.2811 192.5,93.5C 193.326,92.549 193.492,91.549 193,90.5C 191.629,92.0414 190.129,93.3747 188.5,94.5C 188.082,93.7784 187.416,93.2784 186.5,93C 189.06,91.2267 191.393,89.2267 193.5,87C 194.5,86.5 195.5,86 196.5,85.5C 197.298,85.9569 197.631,86.6236 197.5,87.5C 196.468,90.9323 197.802,93.4323 201.5,95C 208.031,95.3039 214.698,95.1372 221.5,94.5C 219.276,97.1683 217.276,100.168 215.5,103.5C 213.577,104.308 211.577,104.808 209.5,105C 214.608,106.35 219.774,106.85 225,106.5C 225.483,105.552 225.649,104.552 225.5,103.5C 226.5,103.5 227.5,103.5 228.5,103.5C 228.5,102.167 228.5,100.833 228.5,99.5C 229.675,99.719 230.675,99.3857 231.5,98.5C 230.58,96.2143 230.58,93.8809 231.5,91.5C 228.568,91.7157 225.902,91.049 223.5,89.5C 221.527,90.3311 219.527,90.4978 217.5,90C 215.789,87.5438 214.456,84.8771 213.5,82C 214.833,82.6667 216.167,83.3333 217.5,84C 217.966,82.7012 217.966,81.2012 217.5,79.5C 219.807,79.9863 221.973,79.9863 224,79.5C 224.853,81.1247 225.853,81.4581 227,80.5C 226.609,84.9881 228.275,88.3215 232,90.5C 233.726,89.3521 233.559,88.1855 231.5,87C 232.711,85.8869 232.711,84.7202 231.5,83.5C 232.167,83.1667 232.833,82.8333 233.5,82.5C 232.509,80.6769 231.176,79.1769 229.5,78C 231.98,77.04 234.48,76.2066 237,75.5C 237.181,78.6946 237.681,81.6946 238.5,84.5 Z"/></g>
<g><path style="opacity:1" fill="#b5794c" d="M 71.5,70.5 C 71.2132,73.4841 69.5465,74.8174 66.5,74.5C 64.1163,75.4251 63.1163,77.2585 63.5,80C 63.1163,82.7415 64.1163,84.5749 66.5,85.5C 66.7869,87.1207 67.7869,88.1207 69.5,88.5C 70.4287,89.6888 70.762,91.0222 70.5,92.5C 71.5,92.5 72.5,92.5 73.5,92.5C 73.33,93.8221 73.6634,94.9887 74.5,96C 79.8151,99.8077 84.8151,103.974 89.5,108.5C 89.8333,107.667 90.1667,106.833 90.5,106C 88.5651,102.527 87.2317,98.8599 86.5,95C 87.0761,89.4119 87.4094,83.5785 87.5,77.5C 90.5041,75.0643 91.1708,75.8977 89.5,80C 90.0848,81.3024 90.7515,82.469 91.5,83.5C 91.33,84.8221 91.6634,85.9887 92.5,87C 91.0563,88.7635 90.0563,90.7635 89.5,93C 92.5443,93.3589 92.8776,94.0255 90.5,95C 91.9675,96.0975 92.8008,97.5975 93,99.5C 93.4992,104.155 93.6658,108.821 93.5,113.5C 95.4147,113.216 97.0813,113.549 98.5,114.5C 97.0222,114.238 95.6888,114.571 94.5,115.5C 94.8457,116.696 95.3457,116.696 96,115.5C 96.6172,116.449 96.4506,117.282 95.5,118C 99.0822,118.595 99.4155,119.929 96.5,122C 101.526,122.408 105.526,124.575 108.5,128.5C 116.084,130.066 123.75,130.732 131.5,130.5C 131.5,129.5 131.5,128.5 131.5,127.5C 137.254,128.975 142.921,130.641 148.5,132.5C 148.911,131.738 149.077,130.738 149,129.5C 149.667,130.167 150.333,130.833 151,131.5C 152.849,130.439 154.849,129.773 157,129.5C 163.476,130.298 169.976,130.298 176.5,129.5C 176.5,131.5 176.5,133.5 176.5,135.5C 178.179,135.285 179.179,135.952 179.5,137.5C 178.167,137.5 176.833,137.5 175.5,137.5C 175.5,136.5 175.5,135.5 175.5,134.5C 169.69,135.3 164.024,136.634 158.5,138.5C 157.749,137.624 157.249,136.624 157,135.5C 156.153,137.193 155.32,138.86 154.5,140.5C 153.5,140.5 152.5,140.5 151.5,140.5C 151.336,134.833 151.003,134.5 150.5,139.5C 149.5,139.5 148.5,139.5 147.5,139.5C 147.357,137.738 147.691,136.071 148.5,134.5C 147.833,133.833 147.167,133.167 146.5,132.5C 138.838,131.307 131.171,131.307 123.5,132.5C 120.113,132.036 116.78,131.369 113.5,130.5C 113.337,132.857 113.503,135.19 114,137.5C 115.417,138.078 116.25,139.078 116.5,140.5C 113.909,139.746 112.076,138.079 111,135.5C 110.598,136.872 110.098,138.205 109.5,139.5C 110.246,140.736 110.579,142.07 110.5,143.5C 108.777,141.22 108.111,138.553 108.5,135.5C 107.167,135.5 105.833,135.5 104.5,135.5C 104.785,137.288 104.452,138.955 103.5,140.5C 99.0731,140.573 96.7398,138.406 96.5,134C 98.0028,132.079 98.6695,129.912 98.5,127.5C 95.3429,127.921 93.0095,126.755 91.5,124C 90.552,123.517 89.552,123.351 88.5,123.5C 88.5,122.167 88.5,120.833 88.5,119.5C 87.1266,119.657 85.7932,119.49 84.5,119C 81.8661,115.564 79.5328,112.064 77.5,108.5C 72.5442,105.365 68.7109,101.032 66,95.5C 65.7679,96.7375 65.2679,97.7375 64.5,98.5C 62.3115,92.5456 61.1448,86.5456 61,80.5C 58.7042,83.3881 57.5376,82.8881 57.5,79C 56.8371,75.5274 56.5037,72.0274 56.5,68.5C 57.2216,68.0825 57.7216,67.4158 58,66.5C 58.8333,67.5 59.6667,68.5 60.5,69.5C 61.1924,68.9747 61.6924,68.3081 62,67.5C 64.6417,70.0288 67.8084,71.0288 71.5,70.5 Z"/></g>
<g><path style="opacity:1" fill="#a8582d" d="M 148.5,97.5 C 148.5,98.8333 148.5,100.167 148.5,101.5C 152.833,101.5 157.167,101.5 161.5,101.5C 163.199,101.34 164.866,101.506 166.5,102C 164.082,102.915 162.082,104.415 160.5,106.5C 159.264,105.754 157.93,105.421 156.5,105.5C 156.617,107.484 155.95,109.15 154.5,110.5C 151.076,112.581 147.41,113.914 143.5,114.5C 142.77,112.955 141.437,112.122 139.5,112C 141.134,111.506 142.801,111.34 144.5,111.5C 144.378,107.162 144.045,106.828 143.5,110.5C 142.178,110.67 141.011,110.337 140,109.5C 139.505,107.527 139.338,105.527 139.5,103.5C 134.304,103.435 134.304,102.768 139.5,101.5C 140.386,100.675 140.719,99.675 140.5,98.5C 143.244,99.4906 145.911,99.1573 148.5,97.5 Z"/></g>
<g><path style="opacity:1" fill="#bc5c2c" d="M 140.5,98.5 C 140.719,99.675 140.386,100.675 139.5,101.5C 134.304,102.768 134.304,103.435 139.5,103.5C 139.338,105.527 139.505,107.527 140,109.5C 141.011,110.337 142.178,110.67 143.5,110.5C 144.045,106.828 144.378,107.162 144.5,111.5C 142.801,111.34 141.134,111.506 139.5,112C 141.437,112.122 142.77,112.955 143.5,114.5C 134.867,115.377 126.2,115.711 117.5,115.5C 114.639,115.487 113.639,114.321 114.5,112C 119.621,110.061 124.621,110.228 129.5,112.5C 130.167,112.333 130.833,112.167 131.5,112C 130.663,110.989 130.33,109.822 130.5,108.5C 128.192,108.086 125.858,107.753 123.5,107.5C 118.121,107.974 112.788,109.474 107.5,112C 105.167,112.667 102.833,112.667 100.5,112C 101.071,110.795 101.738,109.628 102.5,108.5C 105.674,111.192 108.674,111.025 111.5,108C 107.091,107.737 103.091,106.57 99.5,104.5C 98.0055,104.709 96.8388,105.376 96,106.5C 95.187,104.564 94.687,102.564 94.5,100.5C 96.5,100.5 98.5,100.5 100.5,100.5C 100.5,98.8333 100.5,97.1667 100.5,95.5C 103.5,95.5 106.5,95.5 109.5,95.5C 114.304,94.7576 118.97,95.4243 123.5,97.5C 125.383,96.9757 127.216,96.3091 129,95.5C 132.335,98.1539 136.169,99.1539 140.5,98.5 Z"/></g>
<g><path style="opacity:1" fill="#bf8251" d="M 176.5,103.5 C 176.251,106.37 175.918,109.37 175.5,112.5C 176.333,112.833 177.167,113.167 178,113.5C 181.714,112.131 185.547,111.464 189.5,111.5C 189.365,113.554 190.032,115.221 191.5,116.5C 186.973,116.518 182.307,116.851 177.5,117.5C 177.33,120.266 176.664,122.933 175.5,125.5C 175.623,126.925 175.957,128.258 176.5,129.5C 169.976,130.298 163.476,130.298 157,129.5C 154.849,129.773 152.849,130.439 151,131.5C 150.333,130.833 149.667,130.167 149,129.5C 149.077,130.738 148.911,131.738 148.5,132.5C 142.921,130.641 137.254,128.975 131.5,127.5C 131.5,128.5 131.5,129.5 131.5,130.5C 123.75,130.732 116.084,130.066 108.5,128.5C 105.526,124.575 101.526,122.408 96.5,122C 99.4155,119.929 99.0822,118.595 95.5,118C 96.4506,117.282 96.6172,116.449 96,115.5C 95.3457,116.696 94.8457,116.696 94.5,115.5C 95.6888,114.571 97.0222,114.238 98.5,114.5C 103.846,115.002 109.179,115.668 114.5,116.5C 115.726,116.48 116.726,116.147 117.5,115.5C 126.2,115.711 134.867,115.377 143.5,114.5C 147.41,113.914 151.076,112.581 154.5,110.5C 155.95,109.15 156.617,107.484 156.5,105.5C 157.93,105.421 159.264,105.754 160.5,106.5C 162.082,104.415 164.082,102.915 166.5,102C 164.866,101.506 163.199,101.34 161.5,101.5C 164.313,100.918 166.98,99.9182 169.5,98.5C 171.389,97.6201 173.389,97.6201 175.5,98.5C 175.897,99.525 176.563,99.6917 177.5,99C 178.047,98.0754 178.713,97.2421 179.5,96.5C 179.833,96.8333 180.167,97.1667 180.5,97.5C 178.722,99.264 177.389,101.264 176.5,103.5 Z"/></g>
<g><path style="opacity:1" fill="#b3754b" d="M 243.5,90.5 C 242.784,96.6453 241.451,102.645 239.5,108.5C 238.211,107.499 236.878,107.666 235.5,109C 231.046,113.395 226.046,117.062 220.5,120C 219.929,122.611 219.096,125.111 218,127.5C 217.692,126.692 217.192,126.025 216.5,125.5C 215.638,126.766 214.971,128.099 214.5,129.5C 213.432,130.434 212.099,130.768 210.5,130.5C 210.5,131.833 210.5,133.167 210.5,134.5C 214.193,135.247 214.193,136.58 210.5,138.5C 209.691,140.071 209.357,141.738 209.5,143.5C 207.302,144.014 205.302,145.014 203.5,146.5C 202.548,144.955 202.215,143.288 202.5,141.5C 199.951,141.441 197.951,142.441 196.5,144.5C 194.929,143.691 193.262,143.357 191.5,143.5C 191.539,142.417 191.873,141.417 192.5,140.5C 192,140.167 191.5,139.833 191,139.5C 187.901,138.873 184.734,138.873 181.5,139.5C 185.429,138.13 189.429,136.63 193.5,135C 196.124,129.68 200.457,126.847 206.5,126.5C 207.527,122.14 210.193,119.473 214.5,118.5C 215.386,117.675 215.719,116.675 215.5,115.5C 212.212,115.927 209.212,115.26 206.5,113.5C 204.271,114.577 201.937,115.244 199.5,115.5C 199.5,116.833 199.5,118.167 199.5,119.5C 193.268,119.973 192.601,119.139 197.5,117C 195.527,116.505 193.527,116.338 191.5,116.5C 190.032,115.221 189.365,113.554 189.5,111.5C 194.15,111.69 198.65,111.023 203,109.5C 204.436,109.559 205.769,109.892 207,110.5C 208.698,109.267 210.698,108.6 213,108.5C 219.071,109.822 224.905,108.989 230.5,106C 235.708,101.621 240.041,96.4539 243.5,90.5 Z"/></g>
<g><path style="opacity:1" fill="#9d5d31" d="M 181.5,139.5 C 180.167,139.5 179.5,138.833 179.5,137.5C 179.179,135.952 178.179,135.285 176.5,135.5C 176.5,133.5 176.5,131.5 176.5,129.5C 175.957,128.258 175.623,126.925 175.5,125.5C 176.664,122.933 177.33,120.266 177.5,117.5C 182.307,116.851 186.973,116.518 191.5,116.5C 193.527,116.338 195.527,116.505 197.5,117C 192.601,119.139 193.268,119.973 199.5,119.5C 199.5,118.167 199.5,116.833 199.5,115.5C 201.937,115.244 204.271,114.577 206.5,113.5C 209.212,115.26 212.212,115.927 215.5,115.5C 215.719,116.675 215.386,117.675 214.5,118.5C 210.193,119.473 207.527,122.14 206.5,126.5C 200.457,126.847 196.124,129.68 193.5,135C 189.429,136.63 185.429,138.13 181.5,139.5 Z"/></g>
<g><path style="opacity:1" fill="#94532d" d="M 239.5,108.5 C 237.184,118.778 233.517,128.445 228.5,137.5C 227.001,136.322 226.001,134.655 225.5,132.5C 223.833,133.5 222.5,134.833 221.5,136.5C 220.85,134.816 219.85,133.483 218.5,132.5C 216.97,131.789 215.637,130.789 214.5,129.5C 214.971,128.099 215.638,126.766 216.5,125.5C 217.192,126.025 217.692,126.692 218,127.5C 219.096,125.111 219.929,122.611 220.5,120C 226.046,117.062 231.046,113.395 235.5,109C 236.878,107.666 238.211,107.499 239.5,108.5 Z"/></g>
<g><path style="opacity:1" fill="#99532a" d="M 110.5,143.5 C 113.428,145.124 114.095,147.457 112.5,150.5C 106.025,145.929 99.0251,142.429 91.5,140C 86.9793,134.495 82.8126,128.661 79,122.5C 78.7822,119.574 78.2822,116.74 77.5,114C 76.365,113.251 75.365,113.417 74.5,114.5C 75.2523,118.095 76.5856,121.428 78.5,124.5C 78.0431,125.298 77.3764,125.631 76.5,125.5C 72.1295,116.744 68.1295,107.744 64.5,98.5C 65.2679,97.7375 65.7679,96.7375 66,95.5C 68.7109,101.032 72.5442,105.365 77.5,108.5C 79.5328,112.064 81.8661,115.564 84.5,119C 85.7932,119.49 87.1266,119.657 88.5,119.5C 88.5,120.833 88.5,122.167 88.5,123.5C 89.552,123.351 90.552,123.517 91.5,124C 93.0095,126.755 95.3429,127.921 98.5,127.5C 98.6695,129.912 98.0028,132.079 96.5,134C 96.7398,138.406 99.0731,140.573 103.5,140.5C 104.452,138.955 104.785,137.288 104.5,135.5C 105.833,135.5 107.167,135.5 108.5,135.5C 108.111,138.553 108.777,141.22 110.5,143.5 Z"/></g>
<g><path style="opacity:1" fill="#985023" d="M 154.5,140.5 C 156.693,142.522 157.693,145.189 157.5,148.5C 155.585,148.216 153.919,148.549 152.5,149.5C 151.365,150.474 150.365,151.641 149.5,153C 144.719,154.293 140.053,155.96 135.5,158C 131.427,157.767 127.427,157.934 123.5,158.5C 123.5,157.167 123.5,155.833 123.5,154.5C 128.529,154.196 133.529,154.196 138.5,154.5C 138.709,153.914 139.043,153.414 139.5,153C 128.833,152.333 128.833,151.667 139.5,151C 139.833,150.667 140.167,150.333 140.5,150C 138.349,149.735 136.682,148.735 135.5,147C 136.891,145.035 138.391,143.202 140,141.5C 141.496,143.336 143.329,144.169 145.5,144C 145.018,142.992 144.852,141.825 145,140.5C 142.899,139.076 140.733,137.742 138.5,136.5C 137.833,137.167 137.167,137.833 136.5,138.5C 135.575,137.359 134.741,137.359 134,138.5C 133.289,140.367 133.789,141.867 135.5,143C 132.303,143.987 129.47,143.487 127,141.5C 125.881,142.552 125.381,143.719 125.5,145C 123.19,145.497 120.857,145.663 118.5,145.5C 118.107,143.716 117.441,142.05 116.5,140.5C 116.25,139.078 115.417,138.078 114,137.5C 113.503,135.19 113.337,132.857 113.5,130.5C 116.78,131.369 120.113,132.036 123.5,132.5C 131.171,131.307 138.838,131.307 146.5,132.5C 147.167,133.167 147.833,133.833 148.5,134.5C 147.691,136.071 147.357,137.738 147.5,139.5C 148.5,139.5 149.5,139.5 150.5,139.5C 151.003,134.5 151.336,134.833 151.5,140.5C 152.5,140.5 153.5,140.5 154.5,140.5 Z"/></g>
<g><path style="opacity:1" fill="#a36a41" d="M 179.5,137.5 C 179.5,138.833 180.167,139.5 181.5,139.5C 184.734,138.873 187.901,138.873 191,139.5C 191.5,139.833 192,140.167 192.5,140.5C 191.873,141.417 191.539,142.417 191.5,143.5C 191.102,148.57 191.102,153.57 191.5,158.5C 190.167,159.167 189.167,160.167 188.5,161.5C 188.047,162.458 187.381,163.292 186.5,164C 182.642,164.81 178.976,164.643 175.5,163.5C 179.04,162.28 182.706,161.114 186.5,160C 184.235,155.497 181.235,154.664 177.5,157.5C 176.167,157.5 174.833,157.5 173.5,157.5C 173.281,156.325 173.614,155.325 174.5,154.5C 175.739,154.058 176.739,153.391 177.5,152.5C 179.927,153.974 182.26,153.807 184.5,152C 183.672,151.085 182.672,150.419 181.5,150C 177.361,149.962 173.361,150.129 169.5,150.5C 167.374,150.27 165.707,149.27 164.5,147.5C 161.78,148.86 159.114,150.193 156.5,151.5C 154.932,152.473 153.265,152.64 151.5,152C 153.359,151.399 153.692,150.566 152.5,149.5C 153.919,148.549 155.585,148.216 157.5,148.5C 157.693,145.189 156.693,142.522 154.5,140.5C 155.32,138.86 156.153,137.193 157,135.5C 157.249,136.624 157.749,137.624 158.5,138.5C 164.024,136.634 169.69,135.3 175.5,134.5C 175.5,135.5 175.5,136.5 175.5,137.5C 176.833,137.5 178.167,137.5 179.5,137.5 Z"/></g>
<g><path style="opacity:1" fill="#94613f" d="M 218.5,132.5 C 219.85,133.483 220.85,134.816 221.5,136.5C 222.5,134.833 223.833,133.5 225.5,132.5C 226.001,134.655 227.001,136.322 228.5,137.5C 226.833,141.5 225.167,145.5 223.5,149.5C 221.777,148.395 220.777,146.728 220.5,144.5C 221.773,143.923 221.773,143.257 220.5,142.5C 219.391,143.59 218.391,143.59 217.5,142.5C 218.127,141.583 218.461,140.583 218.5,139.5C 217.167,137.167 217.167,134.833 218.5,132.5 Z"/></g>
<g><path style="opacity:1" fill="#7f4920" d="M 123.5,154.5 C 121.83,154.249 120.33,153.582 119,152.5C 118.577,149.867 117.41,147.701 115.5,146C 116.448,145.517 117.448,145.351 118.5,145.5C 120.857,145.663 123.19,145.497 125.5,145C 125.381,143.719 125.881,142.552 127,141.5C 129.47,143.487 132.303,143.987 135.5,143C 133.789,141.867 133.289,140.367 134,138.5C 134.741,137.359 135.575,137.359 136.5,138.5C 137.167,137.833 137.833,137.167 138.5,136.5C 140.733,137.742 142.899,139.076 145,140.5C 144.852,141.825 145.018,142.992 145.5,144C 143.329,144.169 141.496,143.336 140,141.5C 138.391,143.202 136.891,145.035 135.5,147C 136.682,148.735 138.349,149.735 140.5,150C 140.167,150.333 139.833,150.667 139.5,151C 128.833,151.667 128.833,152.333 139.5,153C 139.043,153.414 138.709,153.914 138.5,154.5C 133.529,154.196 128.529,154.196 123.5,154.5 Z"/></g>
<g><path style="opacity:1" fill="#8b481f" d="M 177.5,152.5 C 172.226,152.797 166.893,152.297 161.5,151C 162.759,151.923 164.092,152.757 165.5,153.5C 164.007,154.141 163.007,155.141 162.5,156.5C 160.047,155.183 157.38,154.35 154.5,154C 155.756,153.583 156.423,152.75 156.5,151.5C 159.114,150.193 161.78,148.86 164.5,147.5C 165.707,149.27 167.374,150.27 169.5,150.5C 173.361,150.129 177.361,149.962 181.5,150C 182.672,150.419 183.672,151.085 184.5,152C 182.26,153.807 179.927,153.974 177.5,152.5 Z"/></g>
<g><path style="opacity:1" fill="#a24c1f" d="M 177.5,152.5 C 176.739,153.391 175.739,154.058 174.5,154.5C 173.614,155.325 173.281,156.325 173.5,157.5C 172.258,158.043 170.925,158.377 169.5,158.5C 167.159,157.818 164.826,157.151 162.5,156.5C 163.007,155.141 164.007,154.141 165.5,153.5C 164.092,152.757 162.759,151.923 161.5,151C 166.893,152.297 172.226,152.797 177.5,152.5 Z"/></g>
<g><path style="opacity:1" fill="#9f4d1f" d="M 214.5,129.5 C 215.637,130.789 216.97,131.789 218.5,132.5C 217.167,134.833 217.167,137.167 218.5,139.5C 216.273,140.401 215.273,142.067 215.5,144.5C 211.488,143.887 209.488,145.554 209.5,149.5C 206.768,151.035 204.102,152.869 201.5,155C 199.606,156.079 199.273,157.413 200.5,159C 198.884,159.615 197.551,160.615 196.5,162C 195.365,162.749 194.365,162.583 193.5,161.5C 191.698,160.725 191.031,159.725 191.5,158.5C 191.102,153.57 191.102,148.57 191.5,143.5C 193.262,143.357 194.929,143.691 196.5,144.5C 197.951,142.441 199.951,141.441 202.5,141.5C 202.215,143.288 202.548,144.955 203.5,146.5C 205.302,145.014 207.302,144.014 209.5,143.5C 209.357,141.738 209.691,140.071 210.5,138.5C 214.193,136.58 214.193,135.247 210.5,134.5C 210.5,133.167 210.5,131.833 210.5,130.5C 212.099,130.768 213.432,130.434 214.5,129.5 Z"/></g>
<g><path style="opacity:1" fill="#9f5022" d="M 175.5,163.5 C 173.712,163.785 172.045,163.452 170.5,162.5C 174.035,162.031 177.035,160.531 179.5,158C 178.906,157.536 178.239,157.369 177.5,157.5C 181.235,154.664 184.235,155.497 186.5,160C 182.706,161.114 179.04,162.28 175.5,163.5 Z"/></g>
<g><path style="opacity:1" fill="#7d421c" d="M 220.5,144.5 C 220.777,146.728 221.777,148.395 223.5,149.5C 222.227,151.713 221.227,154.046 220.5,156.5C 216.1,161.214 211.434,165.714 206.5,170C 201.863,171.353 197.53,173.186 193.5,175.5C 193.5,173.5 193.5,171.5 193.5,169.5C 194.161,170.718 194.828,172.051 195.5,173.5C 196.403,171.143 198.07,169.643 200.5,169C 199.167,168.333 199.167,167.667 200.5,167C 202.615,166.443 204.615,165.609 206.5,164.5C 207.675,165.855 208.675,165.688 209.5,164C 207.893,162.951 207.227,161.451 207.5,159.5C 206.5,159.5 205.5,159.5 204.5,159.5C 204.018,154.318 206.351,151.651 211.5,151.5C 211.178,149.278 211.845,147.444 213.5,146C 215.92,145.71 218.254,145.21 220.5,144.5 Z"/></g>
<g><path style="opacity:1" fill="#976038" d="M 110.5,143.5 C 110.579,142.07 110.246,140.736 109.5,139.5C 110.098,138.205 110.598,136.872 111,135.5C 112.076,138.079 113.909,139.746 116.5,140.5C 117.441,142.05 118.107,143.716 118.5,145.5C 117.448,145.351 116.448,145.517 115.5,146C 117.41,147.701 118.577,149.867 119,152.5C 120.33,153.582 121.83,154.249 123.5,154.5C 123.5,155.833 123.5,157.167 123.5,158.5C 127.427,157.934 131.427,157.767 135.5,158C 140.053,155.96 144.719,154.293 149.5,153C 150.365,151.641 151.365,150.474 152.5,149.5C 153.692,150.566 153.359,151.399 151.5,152C 153.265,152.64 154.932,152.473 156.5,151.5C 156.423,152.75 155.756,153.583 154.5,154C 157.38,154.35 160.047,155.183 162.5,156.5C 164.826,157.151 167.159,157.818 169.5,158.5C 170.925,158.377 172.258,158.043 173.5,157.5C 174.833,157.5 176.167,157.5 177.5,157.5C 178.239,157.369 178.906,157.536 179.5,158C 177.035,160.531 174.035,162.031 170.5,162.5C 172.045,163.452 173.712,163.785 175.5,163.5C 178.976,164.643 182.642,164.81 186.5,164C 187.381,163.292 188.047,162.458 188.5,161.5C 189.5,161.5 190.5,161.5 191.5,161.5C 191.107,164.513 191.774,167.18 193.5,169.5C 188.33,167.237 182.996,166.57 177.5,167.5C 177.5,168.833 177.5,170.167 177.5,171.5C 172.964,171.567 168.631,170.901 164.5,169.5C 164.167,166.5 162.5,164.833 159.5,164.5C 158.791,163.596 157.791,163.263 156.5,163.5C 156.5,162.167 156.5,160.833 156.5,159.5C 153.307,158.989 150.141,158.322 147,157.5C 140.604,158.695 134.437,160.362 128.5,162.5C 126.834,161.334 125.167,161.334 123.5,162.5C 121.383,165.787 119.383,169.12 117.5,172.5C 117.818,173.647 118.484,174.481 119.5,175C 124.905,176.469 130.239,178.135 135.5,180C 132.833,180.333 130.167,180.667 127.5,181C 129.058,181.21 130.391,181.71 131.5,182.5C 123.781,181.371 116.447,179.038 109.5,175.5C 109.215,173.712 109.548,172.045 110.5,170.5C 111.167,170.833 111.833,171.167 112.5,171.5C 114.183,168.804 116.183,166.304 118.5,164C 119.287,161.901 119.62,159.734 119.5,157.5C 116.309,156.908 113.309,155.741 110.5,154C 105.48,150.157 100.146,146.824 94.5,144C 91.6335,143.971 89.1335,143.138 87,141.5C 86.5357,142.094 86.369,142.761 86.5,143.5C 82.1559,138.153 78.8226,132.153 76.5,125.5C 77.3764,125.631 78.0431,125.298 78.5,124.5C 76.5856,121.428 75.2523,118.095 74.5,114.5C 75.365,113.417 76.365,113.251 77.5,114C 78.2822,116.74 78.7822,119.574 79,122.5C 82.8126,128.661 86.9793,134.495 91.5,140C 99.0251,142.429 106.025,145.929 112.5,150.5C 114.095,147.457 113.428,145.124 110.5,143.5 Z"/></g>
<g><path style="opacity:1" fill="#8b4319" d="M 218.5,139.5 C 218.461,140.583 218.127,141.583 217.5,142.5C 218.391,143.59 219.391,143.59 220.5,142.5C 221.773,143.257 221.773,143.923 220.5,144.5C 218.254,145.21 215.92,145.71 213.5,146C 211.845,147.444 211.178,149.278 211.5,151.5C 206.351,151.651 204.018,154.318 204.5,159.5C 205.5,159.5 206.5,159.5 207.5,159.5C 207.227,161.451 207.893,162.951 209.5,164C 208.675,165.688 207.675,165.855 206.5,164.5C 204.615,165.609 202.615,166.443 200.5,167C 199.167,167.667 199.167,168.333 200.5,169C 198.07,169.643 196.403,171.143 195.5,173.5C 194.828,172.051 194.161,170.718 193.5,169.5C 191.774,167.18 191.107,164.513 191.5,161.5C 190.5,161.5 189.5,161.5 188.5,161.5C 189.167,160.167 190.167,159.167 191.5,158.5C 191.031,159.725 191.698,160.725 193.5,161.5C 194.365,162.583 195.365,162.749 196.5,162C 197.551,160.615 198.884,159.615 200.5,159C 199.273,157.413 199.606,156.079 201.5,155C 204.102,152.869 206.768,151.035 209.5,149.5C 209.488,145.554 211.488,143.887 215.5,144.5C 215.273,142.067 216.273,140.401 218.5,139.5 Z"/></g>
<g><path style="opacity:1" fill="#984719" d="M 159.5,164.5 C 153.179,166.333 146.846,168.166 140.5,170C 141.337,171.011 141.67,172.178 141.5,173.5C 139.031,172.393 138.031,170.393 138.5,167.5C 135.477,167.895 134.477,166.895 135.5,164.5C 133.157,163.725 130.823,163.058 128.5,162.5C 134.437,160.362 140.604,158.695 147,157.5C 150.141,158.322 153.307,158.989 156.5,159.5C 156.5,160.833 156.5,162.167 156.5,163.5C 157.791,163.263 158.791,163.596 159.5,164.5 Z"/></g>
<g><path style="opacity:1" fill="#944e24" d="M 109.5,175.5 C 107.407,174.955 105.407,174.122 103.5,173C 100.424,170.38 97.2576,167.88 94,165.5C 91.1889,158.287 88.6889,150.953 86.5,143.5C 86.369,142.761 86.5357,142.094 87,141.5C 89.1335,143.138 91.6335,143.971 94.5,144C 100.146,146.824 105.48,150.157 110.5,154C 113.309,155.741 116.309,156.908 119.5,157.5C 119.62,159.734 119.287,161.901 118.5,164C 116.183,166.304 114.183,168.804 112.5,171.5C 111.833,171.167 111.167,170.833 110.5,170.5C 109.548,172.045 109.215,173.712 109.5,175.5 Z"/></g>
<g><path style="opacity:1" fill="#a15326" d="M 128.5,162.5 C 130.823,163.058 133.157,163.725 135.5,164.5C 134.477,166.895 135.477,167.895 138.5,167.5C 138.031,170.393 139.031,172.393 141.5,173.5C 142.313,174.653 143.313,174.653 144.5,173.5C 144.833,173.833 145.167,174.167 145.5,174.5C 144.624,175.251 143.624,175.751 142.5,176C 144.49,177.751 146.823,178.751 149.5,179C 148.167,179.333 146.833,179.667 145.5,180C 146.448,180.483 147.448,180.649 148.5,180.5C 148.5,181.5 148.5,182.5 148.5,183.5C 142.879,182.646 137.212,182.313 131.5,182.5C 130.391,181.71 129.058,181.21 127.5,181C 130.167,180.667 132.833,180.333 135.5,180C 130.239,178.135 124.905,176.469 119.5,175C 118.484,174.481 117.818,173.647 117.5,172.5C 119.383,169.12 121.383,165.787 123.5,162.5C 125.167,161.334 126.834,161.334 128.5,162.5 Z"/></g>
<g><path style="opacity:1" fill="#89471d" d="M 159.5,164.5 C 162.5,164.833 164.167,166.5 164.5,169.5C 168.631,170.901 172.964,171.567 177.5,171.5C 178.469,172.309 179.302,173.309 180,174.5C 180.498,177.482 180.665,180.482 180.5,183.5C 178.833,183.5 177.167,183.5 175.5,183.5C 166.475,182.496 157.475,182.496 148.5,183.5C 148.5,182.5 148.5,181.5 148.5,180.5C 147.448,180.649 146.448,180.483 145.5,180C 146.833,179.667 148.167,179.333 149.5,179C 146.823,178.751 144.49,177.751 142.5,176C 143.624,175.751 144.624,175.251 145.5,174.5C 145.167,174.167 144.833,173.833 144.5,173.5C 143.313,174.653 142.313,174.653 141.5,173.5C 141.67,172.178 141.337,171.011 140.5,170C 146.846,168.166 153.179,166.333 159.5,164.5 Z"/></g>
<g><path style="opacity:1" fill="#795a3c" d="M 220.5,156.5 C 219.04,163.801 215.04,169.301 208.5,173C 199.88,178.48 190.547,181.98 180.5,183.5C 180.665,180.482 180.498,177.482 180,174.5C 179.302,173.309 178.469,172.309 177.5,171.5C 177.5,170.167 177.5,168.833 177.5,167.5C 182.996,166.57 188.33,167.237 193.5,169.5C 193.5,171.5 193.5,173.5 193.5,175.5C 197.53,173.186 201.863,171.353 206.5,170C 211.434,165.714 216.1,161.214 220.5,156.5 Z"/></g>
<g><path style="opacity:1" fill="#693414" d="M 131.5,182.5 C 137.212,182.313 142.879,182.646 148.5,183.5C 157.475,182.496 166.475,182.496 175.5,183.5C 160.757,186.386 146.09,186.052 131.5,182.5 Z"/></g>
</svg>
